<svg id="svg" version="1.1" xmlns="http://www.w3.org/2000/svg" xmlns:xlink="http://www.w3.org/1999/xlink" width="400" height="303.751617076326" viewBox="0, 0, 400,303.751617076326"><g id="svgg"><path id="path0" d="M183.739 49.275 C 166.072 50.264,150.576 60.548,142.539 76.617 C 140.473 80.748,139.211 84.545,137.949 90.426 C 137.317 93.371,137.435 104.656,138.133 108.055 C 138.442 109.559,138.675 111.098,138.652 111.474 C 138.628 111.850,138.778 112.158,138.985 112.158 C 139.354 112.158,141.033 110.268,141.033 109.853 C 141.033 109.737,140.623 110.159,140.122 110.790 C 139.620 111.421,139.210 111.768,139.210 111.560 C 139.210 111.352,139.517 110.805,139.894 110.345 C 140.270 109.884,140.783 109.205,141.033 108.835 C 141.284 108.466,142.618 106.661,143.997 104.824 C 146.452 101.555,146.814 100.912,146.201 100.912 C 145.786 100.912,145.814 100.078,146.234 99.938 C 146.444 99.868,146.384 99.670,146.075 99.414 C 145.647 99.059,145.605 99.071,145.770 99.501 C 146.135 100.451,145.650 99.990,143.953 97.775 C 141.941 95.149,141.734 94.167,143.237 94.380 C 144.041 94.495,144.084 94.477,143.468 94.284 C 142.484 93.976,142.990 93.668,144.884 93.421 C 145.692 93.315,146.489 93.134,146.657 93.018 C 146.824 92.902,147.781 92.632,148.784 92.418 C 149.787 92.204,151.343 91.831,152.241 91.588 L 153.874 91.147 153.668 89.722 C 153.276 87.013,153.171 84.610,153.473 85.258 L 153.757 85.866 153.742 85.258 C 153.734 84.924,153.623 84.240,153.495 83.739 L 153.263 82.827 153.227 83.713 C 153.170 85.125,152.858 84.423,152.404 81.858 C 152.091 80.091,152.068 79.273,152.314 78.663 C 152.496 78.212,152.573 77.665,152.486 77.447 C 152.384 77.192,152.319 77.241,152.304 77.584 C 152.267 78.399,151.672 78.215,151.672 77.388 C 151.672 75.659,152.363 75.922,156.893 79.371 C 158.510 80.603,160.136 81.816,160.506 82.067 C 160.876 82.318,161.556 82.831,162.016 83.207 C 162.477 83.583,163.005 83.891,163.190 83.891 C 163.375 83.891,163.526 84.005,163.526 84.146 C 163.526 84.286,163.868 84.557,164.286 84.747 C 164.704 84.938,165.050 85.336,165.055 85.632 C 165.062 86.038,165.228 85.947,165.732 85.258 C 166.100 84.757,168.536 82.158,171.147 79.483 C 187.832 62.391,187.604 62.614,188.459 62.614 C 189.613 62.614,190.082 63.287,189.837 64.592 C 189.544 66.153,189.841 66.350,191.194 65.496 C 192.837 64.459,192.739 64.439,199.710 67.201 C 206.959 70.073,206.510 70.064,212.918 67.462 C 216.881 65.853,217.490 66.058,222.129 70.562 C 226.805 75.102,226.643 74.438,223.768 77.297 L 221.381 79.670 219.380 79.301 C 212.405 78.016,206.976 84.222,208.872 91.313 L 209.234 92.664 207.960 94.046 C 205.982 96.192,206.505 96.960,208.600 94.985 C 209.992 93.672,210.272 93.666,211.491 94.923 C 212.828 96.303,213.315 95.646,204.521 104.322 C 197.357 111.390,196.621 112.208,196.998 112.684 C 198.123 114.105,206.266 123.882,208.313 126.269 C 210.849 129.228,210.851 129.232,210.172 129.796 C 209.807 130.099,209.361 130.109,208.120 129.843 C 205.164 129.210,204.713 129.132,202.584 128.882 C 201.413 128.744,199.784 128.529,198.963 128.402 L 197.471 128.171 197.726 131.335 C 197.866 133.075,197.991 135.798,198.003 137.386 L 198.024 140.274 197.170 140.372 C 196.700 140.425,196.153 140.341,195.954 140.185 C 195.755 140.029,195.011 139.812,194.301 139.704 C 193.591 139.595,192.428 139.315,191.717 139.082 C 188.553 138.042,188.891 137.902,185.416 141.704 C 179.900 147.741,179.572 148.065,179.142 147.900 C 178.912 147.812,178.723 147.852,178.723 147.991 C 178.723 148.377,181.999 148.632,186.969 148.632 C 222.673 148.632,246.803 111.368,232.188 78.799 C 231.451 77.158,231.722 77.053,228.489 80.243 C 225.272 83.417,225.429 83.372,223.892 81.575 L 222.708 80.191 225.716 77.166 C 228.228 74.640,228.840 74.171,229.433 74.317 C 229.958 74.447,230.082 74.391,229.912 74.100 C 220.140 57.432,202.967 48.199,183.739 49.275 M194.098 68.586 C 194.000 68.842,194.157 68.997,194.513 68.997 C 194.828 68.997,195.155 69.168,195.240 69.377 C 195.357 69.666,195.468 69.651,195.701 69.315 C 196.100 68.743,195.926 68.495,195.005 68.318 C 194.545 68.231,194.194 68.334,194.098 68.586 M186.018 69.186 C 186.018 69.590,186.101 69.611,186.474 69.301 C 186.725 69.093,186.930 68.871,186.930 68.808 C 186.930 68.745,186.725 68.693,186.474 68.693 C 186.223 68.693,186.018 68.915,186.018 69.186 M193.163 69.298 C 193.080 69.432,193.228 69.624,193.492 69.725 C 194.165 69.983,194.529 69.954,194.529 69.640 C 194.529 69.282,193.355 68.988,193.163 69.298 M196.555 69.735 C 195.981 71.231,196.723 72.948,197.944 72.948 C 198.264 72.948,198.374 73.139,198.274 73.521 C 198.165 73.936,198.386 74.224,199.078 74.570 C 200.008 75.033,200.031 75.028,199.941 74.377 C 199.860 73.795,199.994 73.705,200.968 73.686 C 202.631 73.653,203.095 73.076,202.761 71.458 C 202.747 71.391,202.461 71.652,202.126 72.039 C 201.790 72.425,201.426 72.652,201.317 72.543 C 201.208 72.434,201.380 72.055,201.699 71.702 C 202.276 71.065,202.275 71.061,201.520 71.169 C 201.067 71.233,200.786 71.136,200.825 70.930 C 200.860 70.739,200.559 70.520,200.156 70.443 C 199.752 70.366,199.432 70.385,199.443 70.486 C 199.588 71.746,199.032 71.690,197.775 70.318 C 196.906 69.371,196.728 69.285,196.555 69.735 M187.569 73.724 C 186.509 74.802,185.522 75.684,185.374 75.684 C 185.227 75.684,185.106 75.825,185.106 75.998 C 185.106 76.171,184.705 76.704,184.215 77.184 C 183.725 77.663,183.417 78.148,183.531 78.263 C 183.645 78.377,183.739 78.630,183.739 78.824 C 183.739 79.019,184.012 79.179,184.347 79.179 C 184.849 79.179,184.938 79.350,184.859 80.167 C 184.754 81.257,186.249 82.979,187.302 82.979 C 187.599 82.979,187.842 83.184,187.842 83.435 C 187.842 83.685,188.053 83.891,188.311 83.891 C 189.138 83.891,189.661 84.587,189.127 84.978 C 188.591 85.369,188.953 86.170,189.666 86.170 C 190.135 86.170,191.797 84.473,191.789 84.002 C 191.786 83.857,191.639 83.944,191.462 84.195 C 191.201 84.563,191.162 84.567,191.257 84.215 C 191.322 83.975,191.913 83.506,192.572 83.172 C 193.725 82.588,196.152 80.211,196.047 79.767 C 196.020 79.648,196.179 79.423,196.403 79.266 C 196.720 79.043,196.726 78.947,196.429 78.827 C 196.220 78.742,196.049 78.464,196.049 78.210 C 196.049 77.924,195.875 77.813,195.595 77.921 C 195.255 78.051,195.092 77.791,194.948 76.889 C 194.799 75.956,194.620 75.684,194.154 75.684 C 193.735 75.684,193.607 75.541,193.733 75.212 C 193.833 74.953,193.788 74.818,193.635 74.913 C 193.481 75.008,193.269 74.947,193.164 74.777 C 192.870 74.301,192.314 74.412,192.505 74.909 C 192.618 75.203,192.528 75.293,192.234 75.180 C 191.992 75.087,191.793 74.889,191.793 74.740 C 191.793 74.590,191.603 74.468,191.370 74.468 C 190.911 74.468,190.505 73.730,190.801 73.434 C 190.901 73.334,191.131 73.254,191.312 73.257 C 191.493 73.259,191.436 73.394,191.185 73.556 C 190.911 73.733,190.874 73.853,191.091 73.856 C 191.694 73.863,191.738 73.445,191.221 72.644 C 190.398 71.372,189.669 71.588,187.569 73.724 M193.179 77.537 C 193.481 78.025,192.489 78.932,192.089 78.533 C 191.916 78.359,191.861 77.989,191.968 77.710 C 192.188 77.135,192.871 77.038,193.179 77.537 M187.209 78.006 C 187.278 78.066,186.902 78.116,186.373 78.116 C 185.843 78.116,185.410 77.976,185.410 77.806 C 185.410 77.533,186.846 77.693,187.209 78.006 M177.418 78.320 C 177.559 78.688,177.487 78.781,177.159 78.655 C 176.516 78.408,176.016 79.336,176.332 80.190 C 176.649 81.049,177.204 80.781,177.204 79.769 C 177.204 79.361,177.308 79.027,177.434 79.027 C 177.561 79.027,177.836 78.754,178.045 78.419 C 178.377 77.889,178.349 77.812,177.824 77.812 C 177.387 77.812,177.276 77.950,177.418 78.320 M187.234 79.179 C 187.234 79.430,187.087 79.635,186.908 79.635 C 186.729 79.635,186.378 79.430,186.127 79.179 C 185.722 78.774,185.758 78.723,186.452 78.723 C 186.945 78.723,187.234 78.892,187.234 79.179 M155.623 79.415 C 155.623 79.473,156.068 79.846,156.611 80.244 C 157.222 80.692,157.435 80.765,157.168 80.437 C 156.763 79.938,155.623 79.185,155.623 79.415 M177.204 80.829 C 177.204 80.985,177.409 81.317,177.660 81.568 C 177.910 81.818,178.116 82.170,178.116 82.349 C 178.116 82.528,178.239 82.675,178.391 82.675 C 178.543 82.675,178.586 82.367,178.488 81.991 C 178.228 80.993,177.204 80.067,177.204 80.829 M220.858 81.405 C 227.818 84.984,225.156 95.441,217.285 95.441 C 210.717 95.441,207.638 87.847,212.251 83.029 C 214.586 80.590,218.015 79.943,220.858 81.405 M190.274 82.371 C 190.274 82.979,190.122 83.283,189.818 83.283 C 189.272 83.283,189.213 82.337,189.726 81.824 C 190.239 81.311,190.274 81.346,190.274 82.371 M179.390 82.881 C 179.690 82.960,179.835 83.200,179.738 83.454 C 179.635 83.722,179.759 83.891,180.059 83.891 C 180.327 83.891,180.547 83.781,180.547 83.647 C 180.547 83.227,179.838 82.673,179.347 82.710 C 178.968 82.738,178.977 82.772,179.390 82.881 M181.505 85.107 C 181.829 86.038,182.675 86.954,182.675 86.374 C 182.675 85.788,181.994 84.536,181.592 84.381 C 181.285 84.264,181.266 84.423,181.505 85.107 M215.327 85.790 C 214.419 86.623,214.247 86.986,214.231 88.101 C 214.189 91.189,217.721 92.641,219.923 90.439 C 223.015 87.347,218.552 82.833,215.327 85.790 M183.497 86.921 C 183.779 87.250,184.071 87.459,184.146 87.384 C 184.327 87.203,183.583 86.322,183.248 86.322 C 183.103 86.322,183.215 86.592,183.497 86.921 M174.468 87.204 C 174.468 87.571,175.185 88.314,176.064 88.858 C 176.867 89.356,176.900 89.353,176.900 88.781 C 176.900 88.454,176.627 88.100,176.292 87.994 C 175.957 87.888,175.684 87.689,175.684 87.553 C 175.684 87.417,175.410 87.233,175.076 87.146 C 174.742 87.059,174.468 87.085,174.468 87.204 M194.226 88.601 C 193.178 89.669,192.965 90.047,193.252 90.334 C 193.657 90.739,196.353 88.386,196.353 87.627 C 196.353 86.878,195.561 87.241,194.226 88.601 M177.138 90.876 C 177.213 91.384,177.400 91.879,177.555 91.974 C 177.719 92.076,177.751 91.789,177.633 91.287 C 177.346 90.072,176.975 89.763,177.138 90.876 M187.381 90.889 C 187.258 91.089,187.345 91.370,187.575 91.514 C 188.081 91.828,188.353 91.271,187.910 90.828 C 187.708 90.626,187.531 90.646,187.381 90.889 M163.222 92.579 C 163.222 93.115,163.876 93.022,164.064 92.458 C 164.130 92.260,163.968 92.097,163.703 92.097 C 163.438 92.097,163.222 92.314,163.222 92.579 M190.393 93.794 C 190.494 94.058,190.578 94.340,190.578 94.420 C 190.578 94.499,190.708 94.484,190.868 94.385 C 191.221 94.167,190.938 93.313,190.512 93.313 C 190.345 93.313,190.292 93.529,190.393 93.794 M160.930 94.853 C 160.820 95.031,160.802 95.250,160.892 95.339 C 161.109 95.557,161.702 95.174,161.702 94.815 C 161.702 94.426,161.177 94.452,160.930 94.853 M175.866 94.752 C 175.562 95.056,175.662 95.999,176.022 96.222 C 176.370 96.437,176.887 95.859,176.895 95.245 C 176.900 94.846,176.137 94.481,175.866 94.752 M191.033 95.055 C 191.368 95.139,191.736 95.358,191.853 95.543 C 191.969 95.728,192.170 95.773,192.300 95.643 C 192.613 95.330,191.798 94.834,191.033 94.873 L 190.426 94.903 191.033 95.055 M172.515 95.845 C 172.600 96.068,172.526 96.894,172.349 97.682 C 172.075 98.903,172.107 99.223,172.564 99.852 C 173.218 100.750,173.860 100.824,173.860 100.000 C 173.860 99.589,173.658 99.392,173.234 99.392 C 172.833 99.392,172.688 99.264,172.829 99.035 C 173.314 98.251,173.151 95.441,172.621 95.441 C 172.477 95.441,172.429 95.623,172.515 95.845 M173.740 97.139 C 173.493 97.783,174.009 98.160,174.840 97.943 C 175.381 97.801,175.410 97.857,175.097 98.440 C 174.811 98.975,174.833 99.125,175.215 99.245 C 175.473 99.326,175.889 99.456,176.140 99.535 C 176.391 99.613,176.598 99.510,176.600 99.307 C 176.602 99.103,176.687 98.626,176.789 98.248 C 176.938 97.691,176.875 97.597,176.460 97.756 C 175.967 97.945,174.516 97.387,174.130 96.859 C 174.028 96.720,173.853 96.845,173.740 97.139 M178.723 97.568 C 178.723 97.736,178.860 97.872,179.027 97.872 C 179.195 97.872,179.331 98.078,179.331 98.328 C 179.331 98.987,179.841 98.889,180.022 98.196 C 180.114 97.845,179.995 97.538,179.729 97.436 C 179.066 97.182,178.723 97.227,178.723 97.568 M181.863 99.905 C 181.985 100.109,181.845 100.403,181.541 100.580 C 181.073 100.852,181.108 100.895,181.806 100.903 C 182.292 100.908,182.689 100.705,182.810 100.389 C 182.921 100.102,182.914 99.964,182.795 100.083 C 182.676 100.201,182.369 100.129,182.112 99.921 C 181.780 99.653,181.709 99.648,181.863 99.905 M167.781 101.866 C 167.781 102.491,167.535 103.276,167.216 103.670 C 166.681 104.331,166.658 105.638,167.187 105.311 C 167.702 104.992,167.814 105.831,167.351 106.538 C 166.603 107.680,167.028 108.091,167.977 107.143 C 168.227 106.892,168.696 106.687,169.019 106.687 C 169.341 106.687,169.605 106.550,169.605 106.383 C 169.605 106.216,169.400 106.079,169.149 106.079 C 168.898 106.079,168.693 105.874,168.693 105.623 C 168.693 105.372,168.571 105.167,168.422 105.167 C 167.967 105.167,167.749 104.204,168.106 103.774 C 168.290 103.552,168.359 103.237,168.258 103.074 C 168.158 102.911,168.214 102.692,168.384 102.587 C 168.554 102.482,168.693 102.073,168.693 101.679 C 168.693 101.285,168.864 100.900,169.073 100.824 C 169.282 100.747,169.077 100.702,168.617 100.722 C 167.866 100.756,167.782 100.871,167.781 101.866 M179.331 101.064 C 179.331 101.315,179.468 101.520,179.635 101.520 C 179.802 101.520,179.939 101.725,179.939 101.976 C 179.939 102.226,180.059 102.432,180.206 102.432 C 180.353 102.432,180.643 102.226,180.851 101.976 C 181.159 101.605,181.144 101.520,180.769 101.520 C 180.515 101.520,180.229 101.315,180.133 101.064 C 180.037 100.813,179.817 100.608,179.645 100.608 C 179.472 100.608,179.331 100.813,179.331 101.064 M173.860 101.507 C 173.860 101.859,174.100 102.235,174.392 102.343 C 174.685 102.451,175.019 102.682,175.135 102.857 C 175.567 103.505,175.724 102.751,175.329 101.926 C 174.819 100.862,173.860 100.588,173.860 101.507 M170.522 101.420 C 170.745 101.529,170.732 101.716,170.481 102.018 C 169.973 102.630,170.636 103.346,171.194 102.788 C 171.609 102.373,171.214 101.459,170.563 101.333 C 170.349 101.291,170.332 101.327,170.522 101.420 M171.381 104.134 C 172.097 104.636,172.555 104.545,172.201 103.972 C 172.091 103.793,171.705 103.647,171.343 103.647 L 170.685 103.647 171.381 104.134 M177.660 103.951 C 177.438 104.310,177.725 104.863,178.133 104.863 C 178.291 104.863,178.419 104.590,178.419 104.255 C 178.419 103.614,177.977 103.437,177.660 103.951 M175.988 105.974 C 175.988 106.556,176.634 106.811,176.929 106.346 C 177.322 105.725,177.267 105.601,176.596 105.601 C 176.261 105.601,175.988 105.769,175.988 105.974 M173.860 107.143 C 173.860 107.394,174.082 107.599,174.353 107.599 C 174.757 107.599,174.778 107.516,174.468 107.143 C 174.260 106.892,174.038 106.687,173.975 106.687 C 173.912 106.687,173.860 106.892,173.860 107.143 M168.389 108.225 C 168.389 108.777,168.514 109.077,168.698 108.964 C 168.868 108.858,168.909 108.611,168.790 108.414 C 168.671 108.216,169.031 108.509,169.590 109.064 C 170.273 109.742,170.678 109.957,170.825 109.720 C 170.958 109.504,171.102 109.673,171.194 110.154 C 171.312 110.774,171.223 110.942,170.779 110.942 C 170.116 110.942,170.079 111.197,170.635 111.929 C 171.030 112.449,172.644 111.500,172.644 110.748 C 172.644 110.626,172.942 110.209,173.305 109.822 C 174.079 108.999,173.347 108.764,172.536 109.574 C 172.285 109.825,172.002 110.030,171.906 110.030 C 171.567 110.030,171.739 109.166,172.112 108.995 C 172.321 108.899,172.201 108.891,171.845 108.978 C 171.432 109.079,171.132 108.968,171.018 108.672 C 170.920 108.416,170.562 108.207,170.222 108.207 C 169.876 108.207,169.605 108.006,169.605 107.751 C 169.605 107.497,169.335 107.295,168.997 107.295 C 168.522 107.295,168.389 107.497,168.389 108.225 M151.672 109.119 C 152.029 109.620,152.389 110.030,152.473 110.030 C 152.557 110.030,152.333 109.620,151.976 109.119 C 151.619 108.617,151.258 108.207,151.174 108.207 C 151.091 108.207,151.315 108.617,151.672 109.119 M169.301 120.969 C 168.990 121.167,169.233 121.200,170.061 121.073 C 171.563 120.843,171.819 120.667,170.643 120.673 C 170.156 120.676,169.552 120.809,169.301 120.969 M162.994 121.182 C 163.286 121.259,163.765 121.259,164.058 121.182 C 164.350 121.106,164.111 121.043,163.526 121.043 C 162.941 121.043,162.701 121.106,162.994 121.182 M164.365 121.796 C 164.743 121.868,165.290 121.865,165.581 121.789 C 165.872 121.713,165.562 121.654,164.894 121.657 C 164.225 121.661,163.987 121.723,164.365 121.796 M197.720 127.660 C 197.824 127.827,198.113 127.964,198.364 127.964 C 198.615 127.964,198.736 127.827,198.632 127.660 C 198.529 127.492,198.239 127.356,197.988 127.356 C 197.738 127.356,197.617 127.492,197.720 127.660 M208.932 128.172 C 209.247 128.554,209.386 129.007,209.256 129.236 C 209.073 129.559,209.109 129.562,209.442 129.252 C 209.786 128.932,209.733 128.756,209.118 128.188 C 208.398 127.523,208.393 127.522,208.932 128.172 M196.699 128.571 C 196.699 128.822,196.817 129.301,196.960 129.635 C 197.125 130.018,197.222 130.075,197.222 129.787 C 197.222 129.536,197.104 129.058,196.960 128.723 C 196.796 128.340,196.699 128.284,196.699 128.571 M203.951 128.571 C 204.369 128.705,204.985 128.815,205.319 128.815 C 205.801 128.815,205.769 128.764,205.167 128.571 C 204.749 128.438,204.134 128.328,203.799 128.328 C 203.318 128.328,203.350 128.379,203.951 128.571 M177.280 130.243 C 177.284 130.912,177.346 131.150,177.419 130.772 C 177.491 130.393,177.489 129.846,177.412 129.556 C 177.336 129.265,177.277 129.574,177.280 130.243 M197.060 132.979 C 197.062 134.149,197.117 134.590,197.182 133.960 C 197.248 133.329,197.247 132.372,197.180 131.832 C 197.113 131.293,197.059 131.809,197.060 132.979 M178.502 133.435 C 178.502 134.187,178.562 134.495,178.634 134.119 C 178.706 133.742,178.706 133.127,178.634 132.751 C 178.562 132.375,178.502 132.682,178.502 133.435 M177.847 134.841 C 177.827 135.197,178.051 135.676,178.343 135.905 C 178.806 136.268,178.830 136.263,178.528 135.866 C 178.337 135.616,178.114 135.137,178.031 134.802 C 177.890 134.225,177.880 134.227,177.847 134.841 M186.282 138.039 L 187.306 138.334 186.586 139.152 L 185.866 139.970 186.718 139.218 C 187.660 138.386,187.255 137.657,185.884 137.717 C 185.480 137.735,185.620 137.849,186.282 138.039 M189.514 137.994 C 189.617 138.161,190.001 138.288,190.367 138.277 C 191.010 138.256,191.012 138.246,190.426 137.994 C 189.589 137.634,189.291 137.634,189.514 137.994 M184.935 141.109 L 184.043 142.097 185.030 141.205 C 185.574 140.714,186.018 140.269,186.018 140.217 C 186.018 139.982,185.767 140.189,184.935 141.109 M180.841 145.517 L 179.179 147.264 180.927 145.603 C 182.551 144.060,182.814 143.769,182.588 143.769 C 182.541 143.769,181.754 144.555,180.841 145.517 " stroke="none" fill="#cde5fa" fill-rule="evenodd"></path><path id="path1" d="M183.131 47.686 C 182.796 47.824,181.019 48.031,179.180 48.147 C 177.342 48.262,175.707 48.487,175.548 48.647 C 175.389 48.806,174.815 48.936,174.273 48.936 C 173.731 48.936,173.204 49.073,173.100 49.240 C 172.997 49.407,172.647 49.544,172.322 49.544 C 171.998 49.544,171.733 49.689,171.733 49.866 C 171.733 50.043,171.587 50.098,171.410 49.989 C 171.113 49.805,170.539 49.969,168.313 50.873 C 167.853 51.059,167.477 51.316,167.477 51.442 C 167.477 51.568,167.205 51.672,166.871 51.672 C 166.153 51.672,163.830 52.637,163.830 52.935 C 163.830 53.050,163.385 53.241,162.842 53.360 C 162.299 53.479,161.649 53.798,161.398 54.068 C 161.148 54.338,160.429 54.820,159.802 55.139 C 159.176 55.458,158.663 55.834,158.663 55.975 C 158.663 56.116,158.517 56.231,158.338 56.231 C 158.028 56.231,156.218 57.483,155.373 58.283 C 155.153 58.492,154.854 58.663,154.711 58.663 C 154.398 58.663,147.720 65.162,147.720 65.467 C 147.720 65.706,147.251 66.303,146.353 67.205 C 146.018 67.541,145.740 67.911,145.733 68.027 C 145.727 68.142,145.265 68.874,144.706 69.653 C 144.148 70.432,143.717 71.161,143.750 71.272 C 143.782 71.383,143.526 71.720,143.181 72.019 C 142.836 72.319,142.553 72.719,142.553 72.908 C 142.553 73.097,142.423 73.252,142.263 73.252 C 142.103 73.252,141.883 73.731,141.773 74.316 C 141.663 74.901,141.452 75.380,141.304 75.380 C 141.155 75.380,141.033 75.585,141.033 75.836 C 141.033 76.087,140.912 76.292,140.763 76.292 C 140.615 76.292,140.403 76.771,140.294 77.356 C 140.184 77.941,139.963 78.419,139.804 78.419 C 139.644 78.419,139.514 78.761,139.514 79.179 C 139.514 79.597,139.362 79.939,139.177 79.939 C 138.992 79.939,138.916 80.134,139.007 80.373 C 139.099 80.611,138.967 80.978,138.715 81.188 C 138.462 81.397,138.321 81.817,138.400 82.122 C 138.480 82.426,138.421 82.675,138.269 82.675 C 138.118 82.675,137.994 83.009,137.994 83.417 C 137.994 83.825,137.857 84.243,137.690 84.347 C 137.523 84.450,137.386 84.929,137.386 85.410 C 137.386 85.892,137.248 86.372,137.079 86.476 C 136.910 86.581,136.767 87.033,136.763 87.482 C 136.740 89.523,136.395 92.097,136.143 92.097 C 135.787 92.097,135.775 105.379,136.130 105.599 C 136.276 105.688,136.491 106.994,136.609 108.500 C 136.727 110.006,136.950 111.316,137.105 111.412 C 137.259 111.508,137.386 111.980,137.386 112.462 C 137.386 112.944,137.505 113.411,137.650 113.501 C 137.795 113.591,138.003 114.220,138.112 114.900 C 138.220 115.580,138.444 116.404,138.608 116.731 C 138.772 117.058,139.043 117.597,139.210 117.929 C 139.377 118.261,139.514 118.740,139.514 118.993 C 139.514 119.246,139.650 119.453,139.818 119.453 C 139.985 119.453,140.122 119.589,140.122 119.755 C 140.122 120.274,141.165 122.492,141.409 122.492 C 141.537 122.492,141.641 122.643,141.641 122.826 C 141.641 123.211,142.583 125.305,142.857 125.532 C 142.958 125.616,143.336 126.169,143.695 126.761 C 144.055 127.354,144.629 128.161,144.971 128.556 C 145.313 128.950,145.593 129.371,145.593 129.492 C 145.593 129.613,146.121 130.273,146.766 130.958 C 147.411 131.643,147.884 132.258,147.816 132.325 C 147.749 132.393,149.014 133.772,150.627 135.391 C 152.241 137.009,153.627 138.268,153.708 138.187 C 153.789 138.106,154.304 138.502,154.853 139.068 C 155.402 139.633,155.937 140.010,156.041 139.906 C 156.146 139.802,156.231 139.876,156.231 140.071 C 156.231 140.266,156.386 140.426,156.575 140.426 C 156.765 140.426,157.175 140.720,157.487 141.080 C 157.799 141.440,158.055 141.619,158.055 141.479 C 158.055 141.338,158.334 141.522,158.674 141.888 C 159.015 142.254,159.494 142.553,159.738 142.553 C 159.983 142.553,160.182 142.690,160.182 142.857 C 160.182 143.024,160.388 143.161,160.638 143.161 C 160.889 143.161,161.094 143.272,161.094 143.407 C 161.094 143.542,161.676 143.906,162.386 144.215 C 163.097 144.525,163.746 144.859,163.830 144.958 C 164.137 145.319,166.300 146.201,166.880 146.201 C 167.208 146.201,167.477 146.307,167.477 146.438 C 167.477 146.759,169.324 147.438,169.649 147.237 C 169.792 147.149,169.909 147.221,169.909 147.398 C 169.909 147.576,170.243 147.720,170.651 147.720 C 171.059 147.720,171.477 147.857,171.581 148.024 C 171.684 148.191,172.075 148.328,172.450 148.328 C 172.824 148.328,173.267 148.464,173.433 148.631 C 173.600 148.797,174.790 149.022,176.078 149.131 C 177.366 149.240,178.419 149.435,178.419 149.564 C 178.419 150.099,191.082 150.681,191.594 150.169 C 191.771 149.992,192.708 149.848,193.678 149.848 C 194.647 149.848,195.441 149.731,195.441 149.589 C 195.441 149.446,196.495 149.240,197.783 149.131 C 199.071 149.022,200.260 148.797,200.427 148.631 C 200.593 148.464,201.044 148.328,201.429 148.328 C 201.813 148.328,202.128 148.204,202.128 148.053 C 202.128 147.901,202.801 147.685,203.625 147.572 C 204.515 147.449,205.192 147.183,205.294 146.916 C 205.389 146.668,205.588 146.541,205.736 146.632 C 205.884 146.724,206.398 146.613,206.878 146.386 C 207.358 146.158,208.195 145.785,208.739 145.556 C 209.282 145.328,209.726 145.037,209.726 144.911 C 209.726 144.784,210.000 144.681,210.334 144.681 C 210.669 144.681,210.942 144.555,210.942 144.401 C 210.942 144.247,211.326 144.037,211.795 143.934 C 212.264 143.831,212.841 143.478,213.078 143.150 C 213.315 142.822,213.744 142.553,214.032 142.553 C 214.320 142.553,214.746 142.281,214.980 141.947 C 215.213 141.614,215.483 141.420,215.579 141.517 C 215.759 141.696,216.386 141.220,217.919 139.742 C 218.395 139.282,218.933 138.906,219.114 138.906 C 219.616 138.906,226.444 132.000,226.444 131.492 C 226.444 131.247,226.752 130.798,227.128 130.493 C 227.977 129.805,229.483 127.812,229.483 127.376 C 229.483 127.198,229.617 127.052,229.781 127.052 C 229.945 127.052,230.165 126.710,230.270 126.292 C 230.375 125.874,230.583 125.532,230.732 125.532 C 230.881 125.532,231.003 125.327,231.003 125.076 C 231.003 124.825,231.119 124.620,231.261 124.620 C 231.403 124.620,231.775 124.039,232.088 123.328 C 232.402 122.618,232.782 121.949,232.933 121.842 C 233.085 121.736,233.115 121.496,233.000 121.311 C 232.885 121.125,232.950 120.973,233.145 120.973 C 233.341 120.973,233.418 120.761,233.319 120.501 C 233.219 120.241,233.266 120.109,233.423 120.205 C 233.580 120.302,233.798 119.899,233.909 119.309 C 234.020 118.720,234.232 118.237,234.380 118.237 C 234.529 118.237,234.650 117.972,234.650 117.647 C 234.650 117.323,234.797 116.967,234.975 116.856 C 235.154 116.746,235.228 116.469,235.140 116.240 C 235.053 116.012,235.112 115.744,235.272 115.645 C 235.432 115.546,235.562 115.140,235.562 114.742 C 235.562 114.343,235.699 113.933,235.866 113.830 C 236.033 113.726,236.170 113.248,236.170 112.766 C 236.170 112.284,236.307 111.805,236.474 111.702 C 236.641 111.599,236.778 111.071,236.778 110.529 C 236.778 109.987,236.949 109.373,237.158 109.164 C 237.587 108.735,237.930 92.510,237.529 91.564 C 237.406 91.272,237.332 90.534,237.366 89.925 C 237.400 89.315,237.282 88.725,237.103 88.615 C 236.924 88.504,236.778 87.883,236.778 87.234 C 236.778 86.585,236.641 85.970,236.474 85.866 C 236.307 85.763,236.170 85.345,236.170 84.936 C 236.170 84.528,236.046 84.195,235.895 84.195 C 235.743 84.195,235.525 83.511,235.410 82.675 C 235.295 81.839,235.077 81.079,234.926 80.985 C 234.774 80.892,234.650 80.550,234.650 80.225 C 234.650 79.901,234.548 79.634,234.422 79.633 C 234.297 79.631,233.939 78.811,233.627 77.809 C 233.315 76.807,232.938 75.988,232.791 75.988 C 232.643 75.988,232.523 75.783,232.523 75.532 C 232.523 75.281,232.386 75.076,232.219 75.076 C 232.052 75.076,231.942 74.973,231.975 74.848 C 232.085 74.433,231.575 73.252,231.287 73.252 C 231.131 73.252,231.003 73.062,231.003 72.829 C 231.003 72.596,230.789 72.323,230.528 72.223 C 230.266 72.123,230.131 71.914,230.227 71.759 C 230.322 71.604,230.194 71.271,229.942 71.019 C 229.690 70.767,229.483 70.345,229.483 70.083 C 229.483 69.820,229.376 69.605,229.245 69.605 C 229.114 69.605,228.745 69.160,228.425 68.617 C 228.105 68.074,227.529 67.380,227.144 67.075 C 226.759 66.771,226.444 66.388,226.444 66.226 C 226.444 66.063,226.136 65.601,225.760 65.198 C 225.384 64.796,224.912 64.289,224.711 64.072 C 224.510 63.855,224.168 63.511,223.951 63.306 C 223.734 63.102,223.419 62.794,223.252 62.621 C 221.178 60.479,217.485 57.370,216.641 57.056 C 216.349 56.947,216.109 56.717,216.109 56.544 C 216.109 56.372,215.925 56.231,215.701 56.231 C 215.476 56.231,215.055 55.970,214.766 55.650 C 214.477 55.331,213.909 54.987,213.503 54.885 C 213.098 54.783,212.766 54.565,212.766 54.402 C 212.766 54.238,212.561 54.103,212.310 54.103 C 212.059 54.103,211.854 53.973,211.854 53.813 C 211.854 53.654,211.375 53.433,210.790 53.323 C 210.205 53.214,209.726 53.002,209.726 52.854 C 209.726 52.705,209.521 52.584,209.271 52.584 C 209.020 52.584,208.815 52.447,208.815 52.280 C 208.815 52.112,208.575 51.975,208.283 51.974 C 207.990 51.973,207.359 51.768,206.880 51.518 C 206.401 51.268,205.820 51.064,205.588 51.064 C 205.357 51.064,205.167 50.927,205.167 50.760 C 205.167 50.593,204.833 50.456,204.425 50.456 C 204.017 50.456,203.606 50.331,203.512 50.178 C 203.417 50.026,202.760 49.805,202.050 49.688 C 201.340 49.571,200.591 49.339,200.384 49.172 C 200.177 49.005,199.818 48.941,199.586 49.030 C 199.354 49.119,198.805 49.006,198.366 48.778 C 197.928 48.551,197.193 48.401,196.733 48.445 C 196.273 48.490,195.760 48.425,195.593 48.301 C 194.954 47.830,184.088 47.293,183.131 47.686 M190.578 48.942 C 195.489 49.431,200.904 50.489,202.888 51.347 C 203.222 51.492,203.974 51.781,204.559 51.991 C 206.502 52.685,210.695 54.729,212.356 55.791 C 213.257 56.367,214.069 56.839,214.161 56.839 C 215.069 56.839,222.594 63.702,225.169 66.878 C 227.267 69.467,227.167 69.335,227.829 70.373 C 228.146 70.870,228.477 71.345,228.564 71.429 C 229.122 71.962,230.837 75.343,230.646 75.534 C 230.559 75.621,230.148 75.425,229.733 75.099 L 228.979 74.505 226.035 77.460 L 223.091 80.415 224.331 81.621 L 225.570 82.827 228.457 79.863 C 230.045 78.233,231.438 76.900,231.553 76.900 C 231.803 76.901,233.050 79.645,233.325 80.800 C 233.431 81.246,233.614 81.748,233.731 81.915 C 233.936 82.209,234.704 84.746,235.249 86.930 C 235.395 87.515,235.668 88.578,235.857 89.293 C 236.724 92.583,236.735 104.359,235.875 108.318 C 235.222 111.320,234.049 115.502,233.731 115.957 C 233.614 116.125,233.424 116.657,233.308 117.142 C 233.192 117.626,232.604 119.061,232.001 120.331 C 226.245 132.461,216.152 141.631,203.553 146.176 C 202.582 146.527,201.282 146.937,200.666 147.089 C 200.049 147.240,198.723 147.589,197.720 147.864 C 192.965 149.168,178.419 149.382,178.419 148.147 C 178.419 147.930,179.363 146.753,180.515 145.532 C 185.630 140.117,185.753 139.943,184.738 139.537 C 183.619 139.090,179.000 137.733,177.454 137.398 C 174.712 136.803,174.398 136.539,174.565 134.970 C 174.793 132.839,175.627 126.807,175.976 124.772 C 176.148 123.769,176.289 122.846,176.290 122.720 C 176.293 122.336,177.108 122.467,177.477 122.911 C 177.873 123.388,178.427 127.683,178.629 131.834 L 178.765 134.642 179.732 135.078 C 180.264 135.318,181.451 135.651,182.371 135.820 C 183.290 135.988,184.590 136.278,185.258 136.466 C 185.927 136.653,187.363 137.017,188.450 137.275 C 192.074 138.137,192.546 138.255,193.769 138.613 C 194.438 138.808,195.497 139.037,196.123 139.121 L 197.262 139.273 197.121 137.950 C 197.044 137.222,196.906 135.095,196.814 133.223 C 196.589 128.611,196.438 127.980,195.474 127.617 C 195.038 127.453,194.284 127.122,193.798 126.881 C 193.313 126.641,192.792 126.444,192.642 126.444 C 192.491 126.444,191.726 126.151,190.941 125.794 C 190.156 125.436,188.761 124.854,187.842 124.500 C 184.613 123.258,184.630 123.462,187.542 120.701 C 188.961 119.356,190.204 118.251,190.306 118.246 C 190.474 118.238,192.717 121.128,195.652 125.135 C 197.149 127.180,197.592 127.329,204.863 128.243 C 205.950 128.380,207.386 128.596,208.055 128.724 L 209.271 128.956 208.511 128.083 C 208.093 127.602,207.680 127.139,207.595 127.054 C 207.509 126.969,206.827 126.147,206.079 125.228 C 205.331 124.309,204.647 123.488,204.559 123.404 C 204.423 123.275,202.829 121.345,201.216 119.356 C 200.965 119.047,200.505 118.498,200.194 118.135 C 199.883 117.773,199.131 116.863,198.522 116.113 C 197.914 115.362,197.166 114.473,196.860 114.137 C 195.496 112.640,195.228 113.010,203.958 104.362 L 212.172 96.225 211.099 95.152 L 210.026 94.079 196.146 107.982 C 188.511 115.628,182.031 121.884,181.745 121.884 C 181.459 121.884,180.833 121.680,180.354 121.430 C 179.875 121.181,179.252 120.976,178.969 120.975 C 178.687 120.973,178.360 120.818,178.243 120.630 C 178.098 120.395,177.944 120.443,177.754 120.782 C 177.406 121.403,176.292 121.433,176.292 120.821 C 176.292 120.255,176.816 120.178,171.864 121.466 C 169.535 122.072,167.046 122.684,166.333 122.826 C 165.620 122.968,164.774 123.224,164.453 123.396 C 164.132 123.568,163.512 123.708,163.075 123.708 C 162.638 123.708,161.862 123.925,161.350 124.189 C 160.051 124.861,159.276 124.546,158.113 122.874 C 157.560 122.079,156.640 120.813,156.067 120.061 C 155.495 119.309,154.801 118.283,154.524 117.781 C 154.247 117.280,153.172 115.775,152.134 114.438 C 151.096 113.100,150.191 111.852,150.123 111.664 C 149.826 110.838,145.711 105.185,145.402 105.176 C 145.213 105.171,144.461 105.953,143.730 106.914 C 142.999 107.874,142.162 108.926,141.869 109.251 C 141.577 109.575,141.337 109.946,141.337 110.074 C 141.337 110.202,140.995 110.649,140.578 111.067 C 140.160 111.485,139.818 111.969,139.818 112.144 C 139.818 112.892,138.666 112.435,138.514 111.626 C 137.207 104.643,137.086 103.569,137.085 98.936 C 137.085 94.433,137.563 89.831,138.285 87.386 C 138.433 86.884,138.778 85.653,139.050 84.650 C 139.323 83.647,139.662 82.553,139.803 82.219 C 139.945 81.884,140.229 81.132,140.435 80.547 C 143.283 72.475,151.228 62.466,158.825 57.381 C 161.835 55.367,167.669 52.280,168.465 52.280 C 168.691 52.280,169.005 52.171,169.164 52.038 C 169.525 51.735,171.005 51.255,173.556 50.611 C 174.643 50.337,176.011 49.991,176.596 49.842 C 177.851 49.523,181.947 48.953,183.891 48.827 C 186.721 48.644,187.767 48.662,190.578 48.942 M182.311 68.616 C 179.251 71.749,174.286 76.826,171.277 79.897 C 168.267 82.968,165.620 85.674,165.393 85.912 C 164.873 86.456,164.297 86.133,159.861 82.803 C 158.096 81.479,156.266 80.122,155.795 79.787 C 155.324 79.453,154.560 78.872,154.097 78.495 C 152.773 77.419,152.504 78.090,153.223 80.680 C 153.406 81.339,153.672 82.843,153.815 84.024 C 154.587 90.417,154.770 90.897,156.850 91.951 C 158.462 92.768,158.621 93.021,157.903 93.617 C 157.284 94.130,157.329 94.936,158.010 95.553 C 158.667 96.147,160.377 94.479,182.067 72.090 C 190.070 63.829,189.904 64.027,189.353 63.364 C 188.574 62.425,187.773 63.021,182.311 68.616 M192.097 65.337 C 190.867 66.099,177.874 79.494,178.059 79.810 C 178.174 80.004,183.074 85.044,188.948 91.008 L 199.628 101.854 204.245 97.294 L 208.863 92.734 208.369 90.515 C 206.745 83.215,213.393 77.025,220.539 79.184 C 221.132 79.363,225.128 75.754,225.497 74.707 C 225.604 74.402,222.670 71.426,219.063 68.178 C 217.109 66.419,215.905 66.491,210.486 68.693 C 206.412 70.349,205.028 70.128,197.112 66.553 C 194.112 65.198,192.826 64.886,192.097 65.337 M194.696 67.428 C 194.855 67.569,195.464 67.864,196.049 68.084 C 196.634 68.304,197.835 68.805,198.717 69.196 C 199.600 69.588,200.394 69.909,200.482 69.909 C 202.034 69.909,204.368 71.856,203.902 72.762 C 203.443 73.656,200.228 76.597,199.802 76.513 C 199.110 76.376,191.793 69.483,191.793 68.967 C 191.793 67.944,193.973 66.789,194.696 67.428 M191.390 71.505 C 191.730 71.881,193.396 73.542,195.092 75.196 C 196.789 76.850,198.176 78.412,198.176 78.666 C 198.176 79.316,190.383 86.930,189.717 86.930 C 189.131 86.930,181.459 79.795,181.459 79.251 C 181.459 79.072,183.265 77.102,185.472 74.873 C 189.711 70.592,190.275 70.271,191.390 71.505 M215.046 81.568 C 209.293 84.258,208.722 91.401,214.023 94.352 C 219.128 97.195,225.654 92.236,224.343 86.511 C 223.324 82.067,218.950 79.742,215.046 81.568 M173.907 83.511 C 172.856 84.639,169.412 88.169,166.253 91.356 C 163.094 94.542,160.321 97.513,160.090 97.958 C 159.607 98.891,159.340 98.737,157.599 96.521 C 154.928 93.124,154.250 92.401,153.732 92.401 C 152.879 92.401,145.281 94.209,143.677 94.793 C 143.151 94.985,143.746 96.066,145.958 98.936 C 146.665 99.853,148.260 102.096,148.767 102.888 C 149.089 103.389,149.498 103.962,149.676 104.161 C 149.854 104.360,150.316 104.976,150.702 105.529 C 151.656 106.897,153.746 109.809,154.042 110.182 C 154.174 110.350,155.847 112.675,157.760 115.350 C 162.270 121.657,162.008 121.444,164.316 120.682 C 164.801 120.522,166.497 120.249,168.085 120.076 C 169.673 119.902,171.725 119.625,172.644 119.459 C 176.513 118.762,177.588 118.756,179.129 119.424 C 179.936 119.774,180.826 120.061,181.104 120.062 C 181.383 120.062,185.336 116.271,189.888 111.637 L 198.165 103.211 187.311 92.335 C 181.342 86.353,176.314 81.459,176.138 81.459 C 175.962 81.459,174.959 82.382,173.907 83.511 M220.062 85.365 C 221.315 86.618,221.542 88.233,220.692 89.837 C 219.049 92.934,214.441 92.270,213.798 88.844 C 213.180 85.551,217.724 83.027,220.062 85.365 M176.964 88.025 C 178.908 89.969,179.341 91.216,178.584 92.682 C 177.869 94.064,177.942 94.219,180.551 96.812 C 182.395 98.645,183.088 99.160,183.407 98.932 C 183.638 98.767,184.241 98.323,184.745 97.946 L 185.662 97.260 186.600 98.049 C 187.601 98.891,187.752 99.541,187.136 100.351 C 185.720 102.212,172.422 115.502,171.976 115.502 C 170.643 115.502,171.752 114.208,181.539 104.350 C 185.338 100.524,185.773 99.982,185.404 99.536 C 185.032 99.088,184.225 99.810,177.782 106.356 C 169.457 114.814,170.563 114.084,169.120 112.082 C 164.081 105.091,164.095 105.117,165.198 104.614 C 166.343 104.093,167.205 102.496,167.115 101.064 C 167.042 99.908,167.083 99.846,167.942 99.813 C 168.439 99.794,169.146 99.760,169.513 99.737 C 170.889 99.653,171.884 98.284,171.884 96.476 L 171.884 94.835 173.207 94.834 C 175.723 94.832,177.259 92.438,176.137 90.267 C 175.193 88.443,174.807 88.553,172.037 91.432 C 161.770 102.101,161.799 102.077,161.087 100.747 C 160.684 99.993,160.766 99.881,164.360 96.264 C 166.387 94.223,169.418 91.151,171.094 89.438 C 174.646 85.808,174.727 85.789,176.964 88.025 M196.657 87.627 C 196.657 88.541,194.199 90.980,193.427 90.831 C 192.443 90.641,192.627 89.737,193.940 88.312 C 195.389 86.741,196.657 86.421,196.657 87.627 " stroke="none" fill="#fbfbfb" fill-rule="evenodd"></path><path id="path2" d="M152.052 76.493 C 151.843 76.577,151.680 77.011,151.691 77.457 C 151.710 78.254,151.715 78.256,151.989 77.573 C 152.312 76.769,152.984 76.998,155.061 78.618 C 155.671 79.094,156.492 79.715,156.885 79.998 C 157.277 80.282,158.770 81.376,160.202 82.430 C 164.489 85.585,164.781 85.776,164.993 85.564 C 165.105 85.452,164.923 85.171,164.589 84.940 C 164.255 84.709,163.817 84.378,163.615 84.205 C 163.413 84.032,163.159 83.891,163.051 83.891 C 162.942 83.891,162.477 83.583,162.016 83.207 C 161.556 82.831,160.877 82.318,160.509 82.067 C 160.140 81.816,158.257 80.414,156.324 78.951 C 154.390 77.489,152.724 76.303,152.620 76.316 C 152.516 76.329,152.261 76.409,152.052 76.493 M152.198 78.930 C 151.947 79.319,152.683 84.101,153.047 84.442 C 153.169 84.557,153.183 83.967,153.078 83.131 C 152.635 79.618,152.419 78.587,152.198 78.930 M153.333 86.626 C 153.406 87.546,153.558 88.939,153.670 89.722 L 153.874 91.147 152.241 91.594 C 151.343 91.840,149.753 92.219,148.708 92.436 C 147.663 92.653,146.809 92.954,146.809 93.106 C 146.809 93.417,148.466 93.155,150.295 92.554 C 150.969 92.332,152.229 92.059,153.095 91.946 L 154.671 91.742 155.455 92.983 C 155.886 93.666,156.374 94.225,156.539 94.225 C 157.058 94.225,156.876 93.879,155.518 92.282 C 154.345 90.904,154.174 90.508,153.995 88.754 C 153.723 86.096,153.140 84.221,153.333 86.626 M143.921 93.530 C 143.587 93.610,143.176 93.815,143.009 93.986 C 142.681 94.320,143.678 94.198,145.593 93.669 L 146.657 93.375 145.593 93.379 C 145.008 93.382,144.255 93.449,143.921 93.530 M142.269 94.820 C 142.256 95.289,142.928 96.444,144.073 97.920 C 145.076 99.214,145.897 100.417,145.897 100.592 C 145.897 100.768,146.033 100.912,146.201 100.912 C 146.814 100.912,146.452 101.555,143.997 104.824 C 142.618 106.661,141.284 108.466,141.033 108.835 C 140.783 109.205,140.258 109.898,139.868 110.375 C 139.477 110.853,139.204 111.362,139.260 111.508 C 139.316 111.653,140.988 109.670,142.976 107.102 C 144.964 104.533,146.767 102.432,146.984 102.432 C 147.201 102.432,148.972 104.692,150.922 107.454 C 152.871 110.217,154.658 112.669,154.892 112.904 C 155.127 113.138,155.319 113.418,155.319 113.524 C 155.319 113.740,156.751 115.705,157.420 116.408 C 157.656 116.656,158.289 117.548,158.828 118.390 C 160.383 120.820,161.548 121.930,162.366 121.761 C 162.753 121.680,164.041 121.533,165.227 121.432 C 168.302 121.171,169.704 120.730,167.571 120.695 C 166.703 120.680,165.909 120.805,165.805 120.973 C 165.229 121.906,161.448 121.301,160.578 120.137 C 160.110 119.510,159.621 118.861,159.492 118.693 C 159.015 118.073,156.054 113.863,155.349 112.801 C 154.948 112.197,154.527 111.634,154.414 111.550 C 154.023 111.261,142.795 95.326,142.542 94.701 C 142.303 94.111,142.287 94.119,142.269 94.820 M196.353 112.576 C 196.353 112.667,197.180 113.738,198.191 114.957 C 199.203 116.176,200.195 117.378,200.396 117.629 C 201.238 118.680,203.553 121.471,204.292 122.328 C 210.221 129.202,210.562 129.740,208.739 129.346 C 206.562 128.875,205.544 128.815,205.341 129.145 C 205.204 129.365,205.454 129.483,206.057 129.483 C 206.566 129.483,207.589 129.646,208.331 129.844 C 209.411 130.133,209.775 130.125,210.159 129.807 C 210.853 129.230,210.835 129.193,208.565 126.565 C 207.425 125.244,204.332 121.565,201.693 118.389 C 197.343 113.154,196.353 112.076,196.353 112.576 M174.000 119.773 C 172.656 119.904,171.083 120.157,170.504 120.336 C 169.550 120.631,169.607 120.646,171.125 120.498 C 176.731 119.952,176.595 119.951,176.600 120.557 C 176.604 121.035,176.652 121.052,176.900 120.669 C 177.312 120.030,177.275 119.445,176.824 119.494 C 176.615 119.517,175.344 119.643,174.000 119.773 M178.886 120.330 C 179.728 120.633,180.710 121.039,181.070 121.231 C 182.034 121.747,182.539 121.693,182.067 121.125 C 181.859 120.874,181.447 120.669,181.153 120.669 C 180.858 120.669,180.225 120.464,179.746 120.215 C 179.267 119.965,178.533 119.765,178.116 119.770 C 177.576 119.776,177.799 119.939,178.886 120.330 M186.188 123.243 C 186.513 123.488,187.009 123.693,187.292 123.699 C 187.575 123.704,187.881 123.830,187.973 123.978 C 188.065 124.127,188.498 124.339,188.936 124.449 C 189.374 124.559,190.299 124.897,190.991 125.201 C 191.683 125.504,192.865 125.995,193.617 126.291 C 197.392 127.779,197.242 127.555,197.282 131.763 C 197.296 133.267,197.405 135.565,197.523 136.868 C 197.846 140.412,197.501 140.458,189.460 137.966 C 188.929 137.801,187.834 137.620,187.028 137.563 C 186.222 137.506,185.904 137.522,186.322 137.598 C 188.132 137.928,188.040 138.120,184.010 142.447 C 179.862 146.898,178.907 148.024,179.279 148.024 C 179.606 148.024,180.208 147.405,185.416 141.704 C 188.891 137.902,188.553 138.042,191.717 139.082 C 192.428 139.315,193.591 139.595,194.301 139.704 C 195.011 139.812,195.755 140.029,195.954 140.185 C 196.153 140.341,196.700 140.425,197.170 140.372 L 198.024 140.274 198.003 137.386 C 197.991 135.798,197.866 133.076,197.726 131.336 L 197.471 128.174 198.811 128.387 C 199.549 128.504,201.109 128.656,202.280 128.726 C 204.990 128.887,203.271 128.422,199.609 128.004 C 198.307 127.855,197.008 127.534,196.721 127.289 C 196.435 127.045,194.764 126.250,193.009 125.524 C 191.254 124.797,189.688 124.092,189.529 123.956 C 189.370 123.820,189.028 123.707,188.769 123.706 C 188.510 123.705,187.906 123.500,187.427 123.250 C 186.240 122.631,185.373 122.626,186.188 123.243 M177.429 127.508 C 177.517 129.681,177.707 131.689,177.852 131.971 C 177.997 132.252,178.116 133.153,178.116 133.971 C 178.116 135.623,178.841 136.341,180.274 136.104 C 180.882 136.003,180.788 135.921,179.711 135.609 C 178.495 135.257,178.419 135.169,178.406 134.107 C 178.389 132.677,177.871 127.421,177.530 125.228 C 177.349 124.059,177.318 124.746,177.429 127.508 M181.155 136.277 C 181.155 136.436,182.034 136.710,184.271 137.250 C 184.757 137.368,185.106 137.326,185.106 137.150 C 185.106 136.983,184.662 136.757,184.119 136.646 C 182.005 136.216,181.155 136.111,181.155 136.277 " stroke="none" fill="#959eaa" fill-rule="evenodd"></path><path id="path3" d="M154.139 90.073 C 154.119 90.381,154.744 91.383,155.528 92.300 C 156.672 93.640,156.866 94.021,156.516 94.243 C 156.275 94.395,156.229 94.522,156.412 94.524 C 156.843 94.530,157.751 93.526,157.751 93.044 C 157.751 92.839,157.153 92.407,156.423 92.084 C 154.974 91.443,154.551 91.047,154.323 90.122 C 154.191 89.585,154.170 89.579,154.139 90.073 M154.738 92.518 C 155.118 92.955,155.489 93.313,155.563 93.313 C 155.836 93.313,154.798 91.974,154.429 91.851 C 154.219 91.781,154.358 92.081,154.738 92.518 M155.155 113.090 C 155.044 113.268,155.036 113.496,155.137 113.597 C 155.237 113.697,155.319 113.604,155.319 113.391 C 155.319 113.177,155.601 113.325,155.945 113.720 L 156.571 114.438 156.062 113.602 C 155.491 112.664,155.437 112.634,155.155 113.090 M157.143 116.214 C 157.143 116.736,158.750 118.523,159.052 118.336 C 159.255 118.211,159.300 118.330,159.174 118.659 C 159.049 118.983,159.093 119.106,159.290 118.985 C 159.719 118.720,159.475 118.087,158.941 118.078 C 158.704 118.074,158.529 117.836,158.552 117.549 C 158.575 117.262,158.482 117.097,158.345 117.182 C 158.208 117.266,157.882 117.029,157.620 116.655 C 157.357 116.280,157.143 116.082,157.143 116.214 M187.954 120.674 C 186.762 121.841,185.960 122.796,186.171 122.796 C 186.383 122.796,186.948 123.001,187.427 123.250 C 187.906 123.500,188.514 123.705,188.779 123.706 C 189.044 123.707,189.350 123.798,189.460 123.908 C 189.570 124.018,191.189 124.752,193.058 125.540 C 195.350 126.505,196.482 127.142,196.534 127.496 C 196.641 128.223,196.750 128.270,197.200 127.781 C 197.416 127.547,197.460 127.356,197.298 127.356 C 197.001 127.356,195.151 125.027,192.114 120.829 C 190.128 118.085,190.581 118.101,187.954 120.674 M174.468 119.463 C 173.250 119.685,173.325 119.703,175.152 119.618 C 176.280 119.566,177.204 119.610,177.205 119.716 C 177.205 119.822,177.755 119.916,178.426 119.924 C 179.103 119.932,179.467 119.839,179.244 119.714 C 178.571 119.338,175.915 119.198,174.468 119.463 M159.699 119.987 C 160.019 120.364,160.349 120.603,160.434 120.518 C 160.519 120.433,160.874 120.603,161.222 120.896 C 161.854 121.428,161.854 121.428,161.273 120.743 C 160.954 120.366,160.623 120.127,160.538 120.212 C 160.453 120.297,160.099 120.126,159.751 119.833 C 159.119 119.301,159.119 119.301,159.699 119.987 M182.045 119.935 C 181.802 120.228,181.326 120.370,180.828 120.296 C 179.953 120.168,179.727 120.979,180.574 121.207 C 180.909 121.298,180.904 121.252,180.547 121.000 C 180.178 120.739,180.242 120.677,180.890 120.673 C 181.329 120.671,181.861 120.877,182.072 121.131 C 182.411 121.539,182.508 121.520,182.897 120.965 C 183.662 119.872,182.882 118.927,182.045 119.935 M168.693 120.365 C 167.801 120.553,167.752 120.600,168.389 120.659 L 169.149 120.729 168.389 120.973 C 167.686 121.198,167.679 121.218,168.291 121.246 C 168.656 121.263,169.144 121.086,169.377 120.853 C 169.609 120.621,170.064 120.363,170.386 120.281 C 171.381 120.027,169.962 120.098,168.693 120.365 M164.894 120.973 C 164.408 121.181,164.388 121.238,164.793 121.255 C 165.072 121.267,165.482 121.323,165.705 121.379 C 165.927 121.435,166.006 121.423,165.880 121.353 C 165.753 121.282,165.727 121.100,165.822 120.947 C 166.029 120.612,165.713 120.621,164.894 120.973 M160.742 121.355 C 161.317 122.069,162.015 122.226,163.070 121.880 C 163.970 121.584,163.968 121.582,162.875 121.708 C 162.169 121.789,161.508 121.657,161.051 121.343 C 160.385 120.884,160.363 120.885,160.742 121.355 M176.926 124.848 C 176.941 125.642,177.059 126.976,177.189 127.812 C 177.382 129.055,177.419 128.794,177.390 126.371 C 177.371 124.743,177.253 123.409,177.128 123.407 C 177.002 123.406,176.912 124.054,176.926 124.848 M177.698 132.827 C 177.945 134.529,178.117 134.772,178.111 133.409 C 178.108 132.838,177.970 132.166,177.803 131.915 C 177.590 131.596,177.559 131.871,177.698 132.827 M180.547 135.866 C 180.952 136.128,180.952 136.164,180.547 136.187 C 180.240 136.204,180.290 136.298,180.699 136.474 C 181.535 136.833,182.015 136.833,181.459 136.474 C 181.208 136.312,181.140 136.175,181.307 136.170 C 181.695 136.158,180.802 135.572,180.395 135.572 C 180.228 135.572,180.296 135.704,180.547 135.866 M185.106 137.234 C 185.106 137.451,185.455 137.534,186.018 137.451 C 186.520 137.377,186.930 137.280,186.930 137.234 C 186.930 137.188,186.520 137.091,186.018 137.017 C 185.455 136.935,185.106 137.017,185.106 137.234 " stroke="none" fill="#e2cfad" fill-rule="evenodd"></path><path id="path4" d="M182.675 48.947 C 179.081 49.305,176.638 49.704,176.368 49.978 C 176.112 50.237,178.583 49.943,180.300 49.510 C 181.760 49.141,191.782 49.138,193.246 49.505 C 195.123 49.976,197.787 50.211,197.264 49.860 C 197.014 49.691,196.330 49.548,195.745 49.541 C 195.160 49.535,194.134 49.407,193.465 49.258 C 191.575 48.837,185.535 48.663,182.675 48.947 M174.012 50.456 L 173.404 50.717 174.012 50.708 C 174.347 50.703,174.962 50.590,175.380 50.456 L 176.140 50.213 175.380 50.204 C 174.962 50.199,174.347 50.312,174.012 50.456 M198.328 50.456 C 198.663 50.600,199.210 50.717,199.544 50.717 L 200.152 50.717 199.544 50.456 C 199.210 50.312,198.663 50.195,198.328 50.195 L 197.720 50.195 198.328 50.456 M171.125 51.247 C 170.372 51.500,169.566 51.770,169.333 51.848 C 169.101 51.926,168.970 52.050,169.044 52.124 C 169.118 52.198,170.129 51.929,171.291 51.527 C 172.453 51.125,173.199 50.794,172.948 50.792 C 172.698 50.790,171.877 50.995,171.125 51.247 M200.760 51.013 C 201.838 51.482,203.218 51.741,202.888 51.413 C 202.720 51.247,202.036 51.030,201.368 50.930 C 200.553 50.809,200.352 50.836,200.760 51.013 M203.369 51.787 C 203.665 52.056,208.026 53.777,208.136 53.668 C 208.260 53.544,207.111 52.977,205.054 52.147 C 203.965 51.707,203.071 51.516,203.369 51.787 M164.901 53.825 C 153.954 59.310,143.712 70.540,140.392 80.699 C 140.174 81.368,139.905 82.052,139.796 82.219 C 139.535 82.618,139.161 84.195,139.327 84.195 C 139.398 84.195,139.872 83.046,140.380 81.643 C 144.762 69.532,153.958 59.432,165.743 53.787 C 167.449 52.970,168.640 52.302,168.389 52.303 C 168.138 52.305,166.569 52.989,164.901 53.825 M208.663 54.103 C 208.766 54.271,208.975 54.407,209.127 54.407 C 211.261 54.407,221.155 62.405,225.484 67.629 C 226.177 68.465,226.745 69.053,226.746 68.937 C 226.756 67.802,215.390 56.839,214.203 56.839 C 214.135 56.839,212.941 56.155,211.550 55.319 C 209.067 53.827,208.289 53.499,208.663 54.103 M181.766 68.617 C 169.490 81.181,166.700 84.070,166.130 84.805 C 165.456 85.675,174.142 76.985,182.311 68.617 C 187.774 63.021,188.574 62.424,189.353 63.364 C 189.940 64.070,190.803 63.116,172.948 81.498 C 163.319 91.412,158.547 96.027,158.214 95.751 C 158.012 95.583,157.786 95.507,157.712 95.581 C 157.297 95.996,157.530 94.029,157.951 93.564 C 158.544 92.908,158.474 92.817,156.596 91.803 C 155.538 91.232,155.073 90.755,154.804 89.969 C 154.605 89.384,154.434 89.136,154.424 89.418 C 154.385 90.601,155.019 91.462,156.367 92.059 C 157.674 92.637,158.124 93.350,157.447 93.769 C 157.280 93.872,157.139 94.257,157.133 94.623 C 157.125 95.177,156.881 95.016,155.677 93.659 C 154.616 92.463,154.071 92.069,153.635 92.180 C 153.071 92.323,153.073 92.333,153.670 92.366 C 154.251 92.398,154.887 93.072,157.599 96.521 C 159.340 98.737,159.607 98.891,160.090 97.958 C 160.321 97.513,163.093 94.542,166.250 91.356 C 169.407 88.169,172.857 84.639,173.916 83.511 C 174.975 82.382,175.980 81.459,176.150 81.459 C 176.319 81.459,181.342 86.353,187.311 92.335 L 198.165 103.211 189.888 111.612 C 185.336 116.233,181.337 120.077,181.003 120.154 C 180.430 120.286,180.429 120.296,180.979 120.329 C 181.300 120.349,181.816 120.135,182.126 119.855 C 183.009 119.056,183.570 119.798,182.916 120.900 C 182.645 121.358,188.633 115.510,196.224 107.906 L 210.026 94.079 211.100 95.153 L 212.174 96.227 204.127 104.192 C 199.700 108.574,196.191 112.158,196.329 112.158 C 196.697 112.158,212.462 96.541,212.462 96.176 C 212.462 95.747,210.543 93.921,210.093 93.921 C 209.892 93.921,209.220 94.400,208.600 94.985 C 206.505 96.960,205.982 96.192,207.960 94.046 L 209.234 92.664 208.872 91.313 C 206.976 84.222,212.405 78.016,219.380 79.301 L 221.381 79.670 223.768 77.297 C 226.643 74.438,226.805 75.102,222.129 70.562 C 217.490 66.058,216.881 65.853,212.918 67.462 C 206.510 70.064,206.959 70.073,199.710 67.201 C 192.739 64.439,192.837 64.459,191.194 65.496 C 189.841 66.350,189.544 66.153,189.837 64.592 C 190.082 63.287,189.613 62.614,188.459 62.614 C 187.784 62.614,186.551 63.720,181.766 68.617 M194.898 65.662 C 195.781 66.001,196.778 66.402,197.112 66.553 C 205.028 70.128,206.412 70.349,210.486 68.693 C 215.905 66.491,217.109 66.419,219.063 68.178 C 222.670 71.426,225.604 74.402,225.497 74.707 C 225.128 75.754,221.132 79.363,220.539 79.184 C 213.393 77.025,206.745 83.215,208.369 90.515 L 208.863 92.734 204.245 97.294 L 199.628 101.854 188.948 91.008 C 183.074 85.044,178.174 80.004,178.059 79.810 C 177.874 79.494,190.867 66.099,192.097 65.337 C 192.752 64.932,193.099 64.972,194.898 65.662 M192.629 67.816 C 191.294 68.812,191.576 69.298,195.623 72.969 C 200.183 77.107,199.741 76.964,201.862 74.993 C 203.925 73.077,204.382 72.313,203.864 71.651 C 203.548 71.248,200.948 69.909,200.482 69.909 C 200.394 69.909,199.600 69.588,198.717 69.196 C 197.835 68.805,196.634 68.304,196.049 68.084 C 195.464 67.864,194.855 67.569,194.696 67.428 C 194.230 67.016,193.523 67.149,192.629 67.816 M195.881 68.668 C 195.951 68.781,195.870 69.073,195.701 69.315 C 195.468 69.651,195.357 69.666,195.240 69.377 C 195.155 69.168,194.828 68.997,194.513 68.997 C 194.157 68.997,194.000 68.842,194.098 68.586 C 194.254 68.179,195.617 68.241,195.881 68.668 M186.930 68.808 C 186.930 68.871,186.725 69.093,186.474 69.301 C 186.101 69.611,186.018 69.590,186.018 69.186 C 186.018 68.915,186.223 68.693,186.474 68.693 C 186.725 68.693,186.930 68.745,186.930 68.808 M194.529 69.640 C 194.529 69.954,194.165 69.983,193.492 69.725 C 193.228 69.624,193.080 69.432,193.163 69.298 C 193.355 68.988,194.529 69.282,194.529 69.640 M199.092 71.429 C 199.357 71.429,199.506 71.030,199.443 70.486 C 199.432 70.385,199.752 70.366,200.156 70.443 C 200.559 70.520,200.860 70.739,200.825 70.930 C 200.786 71.136,201.067 71.233,201.520 71.169 C 202.275 71.061,202.276 71.065,201.699 71.702 C 201.380 72.055,201.208 72.434,201.317 72.543 C 201.426 72.652,201.790 72.425,202.126 72.039 C 202.461 71.652,202.747 71.391,202.761 71.458 C 203.095 73.076,202.631 73.653,200.968 73.686 C 199.994 73.705,199.860 73.795,199.941 74.377 C 200.031 75.028,200.008 75.033,199.078 74.570 C 198.386 74.224,198.165 73.936,198.274 73.521 C 198.374 73.139,198.264 72.948,197.944 72.948 C 196.723 72.948,195.981 71.231,196.555 69.735 C 196.728 69.285,196.906 69.371,197.775 70.318 C 198.334 70.929,198.927 71.429,199.092 71.429 M227.404 70.213 C 227.774 70.714,228.128 71.125,228.190 71.125 C 228.251 71.125,228.059 70.714,227.763 70.213 C 227.467 69.711,227.113 69.301,226.977 69.301 C 226.841 69.301,227.033 69.711,227.404 70.213 M185.472 74.873 C 183.265 77.102,181.459 79.072,181.459 79.251 C 181.459 79.795,189.131 86.930,189.717 86.930 C 190.383 86.930,198.176 79.316,198.176 78.666 C 198.176 78.412,196.789 76.850,195.092 75.196 C 193.396 73.542,191.730 71.881,191.390 71.505 C 190.275 70.271,189.711 70.592,185.472 74.873 M228.538 71.960 C 229.065 72.919,229.768 73.715,229.778 73.365 C 229.783 73.177,229.582 72.852,229.331 72.644 C 229.081 72.436,228.875 72.078,228.875 71.847 C 228.875 71.617,228.734 71.429,228.561 71.429 C 228.352 71.429,228.345 71.608,228.538 71.960 M191.221 72.644 C 191.738 73.445,191.694 73.863,191.091 73.856 C 190.874 73.853,190.911 73.733,191.185 73.556 C 191.436 73.394,191.493 73.259,191.312 73.257 C 191.131 73.254,190.901 73.334,190.801 73.434 C 190.505 73.730,190.911 74.468,191.370 74.468 C 191.603 74.468,191.793 74.590,191.793 74.740 C 191.793 74.889,191.992 75.087,192.234 75.180 C 192.528 75.293,192.618 75.203,192.505 74.909 C 192.314 74.412,192.870 74.301,193.164 74.777 C 193.269 74.947,193.481 75.008,193.635 74.913 C 193.788 74.818,193.833 74.953,193.733 75.212 C 193.607 75.541,193.735 75.684,194.154 75.684 C 194.620 75.684,194.799 75.956,194.948 76.889 C 195.092 77.791,195.255 78.051,195.595 77.921 C 195.875 77.813,196.049 77.924,196.049 78.210 C 196.049 78.464,196.220 78.742,196.429 78.827 C 196.726 78.947,196.720 79.043,196.403 79.266 C 196.179 79.423,196.020 79.648,196.047 79.767 C 196.152 80.211,193.725 82.588,192.572 83.172 C 191.913 83.506,191.322 83.975,191.257 84.215 C 191.162 84.567,191.201 84.563,191.462 84.195 C 191.639 83.944,191.786 83.857,191.789 84.002 C 191.797 84.473,190.135 86.170,189.666 86.170 C 188.953 86.170,188.591 85.369,189.127 84.978 C 189.661 84.587,189.138 83.891,188.311 83.891 C 188.053 83.891,187.842 83.685,187.842 83.435 C 187.842 83.184,187.599 82.979,187.302 82.979 C 186.249 82.979,184.754 81.257,184.859 80.167 C 184.938 79.350,184.849 79.179,184.347 79.179 C 184.012 79.179,183.739 79.019,183.739 78.824 C 183.739 78.630,183.645 78.377,183.531 78.263 C 183.417 78.148,183.725 77.663,184.215 77.184 C 184.705 76.704,185.106 76.171,185.106 75.998 C 185.106 75.825,185.227 75.684,185.374 75.684 C 185.522 75.684,186.509 74.802,187.569 73.724 C 189.669 71.588,190.398 71.372,191.221 72.644 M229.942 74.100 C 230.088 74.386,229.949 74.445,229.433 74.317 C 228.840 74.171,228.228 74.640,225.716 77.166 L 222.708 80.191 223.892 81.575 C 225.429 83.372,225.272 83.417,228.489 80.243 C 231.722 77.053,231.454 77.158,232.176 78.799 C 232.488 79.510,232.902 80.433,233.095 80.851 L 233.447 81.611 233.289 80.800 C 233.082 79.732,231.821 76.901,231.553 76.900 C 231.438 76.900,230.045 78.233,228.457 79.863 L 225.570 82.827 224.331 81.621 L 223.091 80.415 226.045 77.450 C 228.593 74.892,229.063 74.540,229.469 74.886 C 230.703 75.939,231.222 75.533,230.221 74.298 C 229.957 73.974,229.832 73.885,229.942 74.100 M152.584 78.250 C 152.584 78.845,152.636 79.331,152.701 79.331 C 152.951 79.331,153.076 77.472,152.837 77.324 C 152.698 77.238,152.584 77.655,152.584 78.250 M191.968 77.710 C 191.861 77.989,191.916 78.359,192.089 78.533 C 192.489 78.932,193.481 78.025,193.179 77.537 C 192.871 77.038,192.188 77.135,191.968 77.710 M185.410 77.806 C 185.410 77.976,185.843 78.116,186.373 78.116 C 187.480 78.116,187.440 77.983,186.246 77.697 C 185.750 77.578,185.410 77.622,185.410 77.806 M153.774 78.226 C 154.179 78.724,155.319 79.478,155.319 79.247 C 155.319 79.189,154.875 78.816,154.331 78.419 C 153.720 77.971,153.508 77.898,153.774 78.226 M178.045 78.419 C 177.836 78.754,177.561 79.027,177.434 79.027 C 177.308 79.027,177.204 79.361,177.204 79.769 C 177.204 80.781,176.649 81.049,176.332 80.190 C 176.016 79.336,176.516 78.408,177.159 78.655 C 177.487 78.781,177.559 78.688,177.418 78.320 C 177.276 77.950,177.387 77.812,177.824 77.812 C 178.349 77.812,178.377 77.889,178.045 78.419 M186.127 79.179 C 186.378 79.430,186.729 79.635,186.908 79.635 C 187.087 79.635,187.234 79.430,187.234 79.179 C 187.234 78.892,186.945 78.723,186.452 78.723 C 185.758 78.723,185.722 78.774,186.127 79.179 M177.930 80.927 C 178.419 81.416,178.750 82.675,178.391 82.675 C 178.239 82.675,178.116 82.528,178.116 82.349 C 178.116 82.170,177.910 81.818,177.660 81.568 C 177.205 81.113,177.048 80.547,177.377 80.547 C 177.473 80.547,177.722 80.718,177.930 80.927 M215.804 80.831 C 207.415 83.383,208.637 95.441,217.285 95.441 C 225.118 95.441,227.822 84.987,220.909 81.431 C 220.289 81.112,219.605 80.853,219.389 80.856 C 219.173 80.859,219.744 81.238,220.658 81.697 C 227.356 85.070,224.701 95.137,217.113 95.137 C 208.059 95.137,208.383 82.183,217.471 80.847 C 218.924 80.634,218.939 80.622,217.781 80.611 C 217.112 80.605,216.223 80.704,215.804 80.831 M153.263 81.915 C 153.263 82.416,153.368 83.237,153.495 83.739 L 153.727 84.650 153.727 83.739 C 153.727 83.237,153.623 82.416,153.495 81.915 L 153.263 81.003 153.263 81.915 M189.726 81.824 C 189.213 82.337,189.272 83.283,189.818 83.283 C 190.122 83.283,190.274 82.979,190.274 82.371 C 190.274 81.346,190.239 81.311,189.726 81.824 M233.435 81.848 C 233.435 81.962,233.628 82.570,233.865 83.201 C 234.101 83.831,234.381 84.739,234.487 85.218 C 234.593 85.698,234.757 86.013,234.851 85.919 C 235.049 85.721,234.071 82.359,233.691 81.930 C 233.550 81.771,233.435 81.734,233.435 81.848 M180.182 83.040 C 180.688 83.545,180.638 83.891,180.059 83.891 C 179.759 83.891,179.635 83.722,179.738 83.454 C 179.835 83.200,179.690 82.960,179.390 82.881 C 178.977 82.772,178.968 82.738,179.347 82.710 C 179.606 82.691,179.982 82.839,180.182 83.040 M161.516 83.982 C 162.166 84.556,163.124 85.268,163.644 85.565 C 164.962 86.317,164.318 85.734,162.158 84.218 C 160.558 83.096,160.480 83.067,161.516 83.982 M182.330 85.289 C 182.814 86.352,182.778 86.786,182.242 86.342 C 181.618 85.824,181.073 84.182,181.592 84.381 C 181.808 84.464,182.140 84.873,182.330 85.289 M138.754 85.410 C 138.638 85.936,138.612 86.434,138.696 86.518 C 138.780 86.601,138.942 86.240,139.058 85.714 C 139.173 85.189,139.199 84.691,139.116 84.607 C 139.032 84.523,138.869 84.885,138.754 85.410 M215.574 85.105 C 212.492 86.984,213.674 91.793,217.217 91.793 C 219.041 91.793,219.915 91.301,220.692 89.837 C 222.535 86.362,218.950 83.047,215.574 85.105 M219.765 85.675 C 221.265 87.176,221.327 89.035,219.923 90.439 C 218.507 91.855,215.939 91.749,214.810 90.228 C 212.473 87.079,217.004 82.915,219.765 85.675 M153.980 87.082 C 154.233 88.590,154.409 88.833,154.403 87.665 C 154.400 87.177,154.258 86.573,154.087 86.322 C 153.865 85.996,153.835 86.211,153.980 87.082 M171.094 89.438 C 169.418 91.151,166.387 94.223,164.360 96.264 C 160.766 99.881,160.684 99.993,161.087 100.747 C 161.799 102.077,161.770 102.101,172.037 91.432 C 174.807 88.553,175.193 88.443,176.137 90.267 C 177.259 92.438,175.723 94.832,173.207 94.834 L 171.884 94.835 171.884 96.476 C 171.884 98.284,170.889 99.653,169.513 99.737 C 169.146 99.760,168.439 99.794,167.942 99.813 C 167.083 99.846,167.042 99.908,167.115 101.064 C 167.205 102.496,166.343 104.093,165.198 104.614 C 164.095 105.117,164.081 105.091,169.120 112.082 C 170.563 114.084,169.457 114.814,177.782 106.356 C 184.225 99.810,185.032 99.088,185.404 99.536 C 185.773 99.982,185.338 100.524,181.539 104.350 C 171.752 114.208,170.643 115.502,171.976 115.502 C 172.422 115.502,185.720 102.212,187.136 100.351 C 187.752 99.541,187.601 98.891,186.600 98.049 L 185.662 97.260 184.745 97.946 C 184.241 98.323,183.638 98.767,183.407 98.932 C 183.088 99.160,182.395 98.645,180.551 96.812 C 177.942 94.219,177.869 94.064,178.584 92.682 C 179.341 91.216,178.908 89.969,176.964 88.025 C 174.727 85.789,174.646 85.808,171.094 89.438 M183.897 86.785 C 184.108 87.040,184.220 87.310,184.146 87.384 C 184.071 87.459,183.779 87.250,183.497 86.921 C 183.215 86.592,183.103 86.322,183.248 86.322 C 183.394 86.322,183.685 86.531,183.897 86.785 M234.989 86.930 C 235.003 87.181,235.125 87.728,235.258 88.146 L 235.502 88.906 235.527 88.146 C 235.541 87.728,235.420 87.181,235.258 86.930 C 234.996 86.525,234.967 86.525,234.989 86.930 M175.684 87.553 C 175.684 87.689,175.957 87.888,176.292 87.994 C 176.627 88.100,176.900 88.454,176.900 88.781 C 176.900 89.353,176.867 89.356,176.064 88.858 C 174.581 87.940,173.954 86.853,175.076 87.146 C 175.410 87.233,175.684 87.417,175.684 87.553 M193.940 88.312 C 192.627 89.737,192.443 90.641,193.427 90.831 C 194.199 90.980,196.657 88.541,196.657 87.627 C 196.657 86.421,195.389 86.741,193.940 88.312 M138.182 87.743 C 136.650 92.716,136.906 109.368,138.540 111.002 C 138.682 111.144,138.526 109.992,138.194 108.442 C 137.371 104.594,137.313 93.146,138.100 89.696 C 138.559 87.681,138.616 86.334,138.182 87.743 M196.353 87.627 C 196.353 88.386,193.657 90.739,193.252 90.334 C 192.965 90.047,193.178 89.669,194.226 88.601 C 195.561 87.241,196.353 86.878,196.353 87.627 M235.746 90.426 C 236.320 95.655,236.450 96.314,236.302 93.249 C 236.224 91.626,236.029 89.985,235.870 89.602 C 235.654 89.085,235.622 89.297,235.746 90.426 M177.633 91.287 C 177.751 91.789,177.719 92.076,177.555 91.974 C 177.400 91.879,177.213 91.384,177.138 90.876 C 176.975 89.763,177.346 90.072,177.633 91.287 M188.104 91.453 C 188.038 91.646,187.827 91.670,187.575 91.514 C 187.345 91.370,187.258 91.089,187.381 90.889 C 187.648 90.458,188.277 90.949,188.104 91.453 M164.064 92.458 C 163.876 93.022,163.222 93.115,163.222 92.579 C 163.222 92.314,163.438 92.097,163.703 92.097 C 163.968 92.097,164.130 92.260,164.064 92.458 M149.696 93.009 C 148.922 93.342,149.721 93.342,150.760 93.009 C 151.371 92.813,151.401 92.764,150.912 92.757 C 150.578 92.752,150.030 92.865,149.696 93.009 M146.960 93.617 L 146.353 93.878 146.960 93.895 C 147.295 93.904,147.774 93.779,148.024 93.617 C 148.629 93.227,147.869 93.227,146.960 93.617 M190.988 93.759 C 191.082 94.005,191.028 94.286,190.868 94.385 C 190.708 94.484,190.578 94.499,190.578 94.420 C 190.578 94.340,190.494 94.058,190.393 93.794 C 190.292 93.529,190.345 93.313,190.512 93.313 C 190.680 93.313,190.893 93.514,190.988 93.759 M144.681 94.225 C 144.055 94.425,144.028 94.473,144.529 94.494 C 144.863 94.508,145.342 94.387,145.593 94.225 C 146.125 93.881,145.756 93.881,144.681 94.225 M142.857 94.787 C 142.857 95.095,144.618 97.568,144.837 97.568 C 144.920 97.568,144.575 96.997,144.069 96.298 C 143.376 95.342,143.244 94.968,143.535 94.783 C 143.816 94.605,143.776 94.537,143.389 94.534 C 143.097 94.531,142.857 94.645,142.857 94.787 M161.702 94.815 C 161.702 95.174,161.109 95.557,160.892 95.339 C 160.674 95.122,161.057 94.529,161.416 94.529 C 161.573 94.529,161.702 94.658,161.702 94.815 M176.895 95.245 C 176.887 95.859,176.370 96.437,176.022 96.222 C 175.662 95.999,175.562 95.056,175.866 94.752 C 176.137 94.481,176.900 94.846,176.895 95.245 M192.088 95.125 C 192.334 95.280,192.430 95.514,192.300 95.643 C 192.170 95.773,191.969 95.728,191.853 95.543 C 191.736 95.358,191.368 95.139,191.033 95.055 L 190.426 94.903 191.033 94.873 C 191.368 94.856,191.843 94.969,192.088 95.125 M173.022 96.125 C 173.208 97.030,173.104 98.590,172.829 99.035 C 172.688 99.264,172.833 99.392,173.234 99.392 C 173.658 99.392,173.860 99.589,173.860 100.000 C 173.860 100.824,173.218 100.750,172.564 99.852 C 172.107 99.223,172.075 98.903,172.349 97.682 C 172.526 96.894,172.600 96.068,172.515 95.845 C 172.429 95.623,172.477 95.441,172.621 95.441 C 172.765 95.441,172.945 95.748,173.022 96.125 M175.131 97.533 C 175.580 97.764,176.178 97.865,176.460 97.756 C 176.875 97.597,176.938 97.691,176.789 98.248 C 176.687 98.626,176.602 99.103,176.600 99.307 C 176.598 99.510,176.391 99.613,176.140 99.535 C 175.889 99.456,175.473 99.326,175.215 99.245 C 174.833 99.125,174.811 98.975,175.097 98.440 C 175.410 97.857,175.381 97.801,174.840 97.943 C 174.009 98.160,173.493 97.783,173.740 97.139 C 173.853 96.845,174.028 96.720,174.130 96.859 C 174.233 96.999,174.683 97.302,175.131 97.533 M179.729 97.436 C 179.995 97.538,180.114 97.845,180.022 98.196 C 179.841 98.889,179.331 98.987,179.331 98.328 C 179.331 98.078,179.195 97.872,179.027 97.872 C 178.860 97.872,178.723 97.736,178.723 97.568 C 178.723 97.227,179.066 97.182,179.729 97.436 M182.795 100.083 C 182.914 99.964,182.921 100.102,182.810 100.389 C 182.689 100.705,182.292 100.908,181.806 100.903 C 181.108 100.895,181.073 100.852,181.541 100.580 C 181.845 100.403,181.985 100.109,181.863 99.905 C 181.709 99.648,181.780 99.653,182.112 99.921 C 182.369 100.129,182.676 100.201,182.795 100.083 M169.073 100.824 C 168.864 100.900,168.693 101.285,168.693 101.679 C 168.693 102.073,168.554 102.482,168.384 102.587 C 168.214 102.692,168.158 102.911,168.258 103.074 C 168.359 103.237,168.290 103.552,168.106 103.774 C 167.749 104.204,167.967 105.167,168.422 105.167 C 168.571 105.167,168.693 105.372,168.693 105.623 C 168.693 105.874,168.898 106.079,169.149 106.079 C 169.400 106.079,169.605 106.216,169.605 106.383 C 169.605 106.550,169.341 106.687,169.019 106.687 C 168.696 106.687,168.227 106.892,167.977 107.143 C 167.028 108.091,166.603 107.680,167.351 106.538 C 167.814 105.831,167.702 104.992,167.187 105.311 C 166.658 105.638,166.681 104.331,167.216 103.670 C 167.535 103.276,167.781 102.491,167.781 101.866 C 167.782 100.871,167.866 100.756,168.617 100.722 C 169.077 100.702,169.282 100.747,169.073 100.824 M180.133 101.064 C 180.229 101.315,180.515 101.520,180.769 101.520 C 181.144 101.520,181.159 101.605,180.851 101.976 C 180.643 102.226,180.353 102.432,180.206 102.432 C 180.059 102.432,179.939 102.226,179.939 101.976 C 179.939 101.725,179.802 101.520,179.635 101.520 C 179.468 101.520,179.331 101.315,179.331 101.064 C 179.331 100.813,179.472 100.608,179.645 100.608 C 179.817 100.608,180.037 100.813,180.133 101.064 M147.719 101.748 C 148.117 102.291,148.490 102.736,148.548 102.736 C 148.779 102.736,148.025 101.596,147.527 101.191 C 147.199 100.924,147.272 101.136,147.719 101.748 M175.329 101.926 C 175.724 102.751,175.567 103.505,175.135 102.857 C 175.019 102.682,174.685 102.451,174.392 102.343 C 174.100 102.235,173.860 101.859,173.860 101.507 C 173.860 100.588,174.819 100.862,175.329 101.926 M171.248 101.909 C 171.672 102.582,171.008 103.349,170.469 102.809 C 170.202 102.543,170.205 102.351,170.481 102.018 C 170.732 101.716,170.745 101.529,170.522 101.420 C 170.332 101.327,170.349 101.291,170.563 101.333 C 170.765 101.372,171.073 101.631,171.248 101.909 M236.046 104.179 C 235.932 105.475,235.776 107.082,235.701 107.751 C 235.572 108.889,235.582 108.908,235.861 108.055 C 236.192 107.042,236.650 101.824,236.408 101.824 C 236.323 101.824,236.160 102.884,236.046 104.179 M145.559 104.197 C 144.955 104.981,143.883 106.341,143.177 107.219 C 142.471 108.097,142.008 108.807,142.147 108.797 C 142.287 108.788,142.993 107.967,143.717 106.974 C 144.440 105.980,145.192 105.171,145.388 105.176 C 145.707 105.185,149.818 110.817,150.123 111.664 C 150.191 111.852,151.096 113.100,152.134 114.438 C 153.172 115.775,154.247 117.280,154.524 117.781 C 154.801 118.283,155.495 119.309,156.067 120.061 C 156.640 120.813,157.560 122.079,158.113 122.874 C 159.276 124.546,160.051 124.861,161.350 124.189 C 161.862 123.925,162.638 123.708,163.075 123.708 C 163.512 123.708,164.132 123.568,164.453 123.396 C 164.774 123.224,165.620 122.965,166.333 122.820 C 168.981 122.283,175.393 120.580,175.262 120.450 C 175.110 120.297,168.675 121.124,166.565 121.566 C 161.825 122.561,161.104 122.370,159.298 119.637 C 159.032 119.235,157.447 117.020,155.775 114.714 C 152.147 109.711,148.843 105.084,147.928 103.727 C 147.068 102.452,146.871 102.491,145.559 104.197 M172.201 103.972 C 172.555 104.545,172.097 104.636,171.381 104.134 L 170.685 103.647 171.343 103.647 C 171.705 103.647,172.091 103.793,172.201 103.972 M178.419 104.255 C 178.419 104.896,177.977 105.073,177.660 104.559 C 177.438 104.201,177.725 103.647,178.133 103.647 C 178.291 103.647,178.419 103.921,178.419 104.255 M150.759 106.003 C 151.157 106.546,151.530 106.991,151.588 106.991 C 151.818 106.991,151.065 105.851,150.566 105.446 C 150.238 105.179,150.311 105.392,150.759 106.003 M177.199 105.764 C 177.186 106.226,176.621 106.738,176.326 106.556 C 175.770 106.213,175.943 105.601,176.596 105.601 C 176.930 105.601,177.202 105.675,177.199 105.764 M174.468 107.143 C 174.778 107.516,174.757 107.599,174.353 107.599 C 174.082 107.599,173.860 107.394,173.860 107.143 C 173.860 106.892,173.912 106.687,173.975 106.687 C 174.038 106.687,174.260 106.892,174.468 107.143 M152.579 108.587 C 153.139 109.381,153.651 110.030,153.716 110.030 C 153.957 110.030,152.714 108.147,152.147 107.654 C 151.823 107.373,152.018 107.793,152.579 108.587 M169.605 107.751 C 169.605 108.006,169.876 108.207,170.222 108.207 C 170.562 108.207,170.920 108.416,171.018 108.672 C 171.132 108.968,171.432 109.079,171.845 108.978 C 172.201 108.891,172.321 108.899,172.112 108.995 C 171.739 109.166,171.567 110.030,171.906 110.030 C 172.002 110.030,172.285 109.825,172.536 109.574 C 173.347 108.764,174.079 108.999,173.305 109.822 C 172.942 110.209,172.644 110.626,172.644 110.748 C 172.644 111.500,171.030 112.449,170.635 111.929 C 170.079 111.197,170.116 110.942,170.779 110.942 C 171.223 110.942,171.312 110.774,171.194 110.154 C 171.102 109.673,170.958 109.504,170.825 109.720 C 170.678 109.957,170.273 109.742,169.590 109.064 C 169.031 108.509,168.671 108.216,168.790 108.414 C 168.909 108.611,168.868 108.858,168.698 108.964 C 168.514 109.077,168.389 108.777,168.389 108.225 C 168.389 107.497,168.522 107.295,168.997 107.295 C 169.335 107.295,169.605 107.497,169.605 107.751 M140.766 110.334 C 140.229 111.003,139.874 111.550,139.977 111.550 C 140.240 111.550,140.795 110.938,141.424 109.954 C 142.192 108.755,141.899 108.924,140.766 110.334 M235.296 109.422 C 235.271 109.673,235.174 110.220,235.081 110.638 C 234.935 111.295,234.959 111.325,235.257 110.858 C 235.447 110.560,235.544 110.013,235.472 109.642 C 235.400 109.270,235.321 109.172,235.296 109.422 M155.401 112.600 C 156.276 113.847,157.105 114.873,157.245 114.880 C 157.385 114.888,157.064 114.312,156.531 113.602 C 155.999 112.891,155.269 111.867,154.909 111.326 C 154.550 110.785,154.155 110.340,154.033 110.338 C 153.911 110.336,154.527 111.354,155.401 112.600 M234.487 112.654 C 234.381 113.134,234.101 114.042,233.865 114.672 C 233.374 115.980,233.322 116.358,233.691 115.942 C 234.071 115.514,235.049 112.151,234.851 111.953 C 234.757 111.859,234.593 112.175,234.487 112.654 M196.566 113.820 C 196.867 114.233,197.239 114.575,197.393 114.580 C 197.548 114.585,197.353 114.248,196.960 113.830 C 196.049 112.860,195.864 112.855,196.566 113.820 M198.040 115.483 C 198.667 116.415,200.304 118.254,200.298 118.020 C 200.294 117.888,199.713 117.157,199.006 116.395 C 198.299 115.632,197.864 115.222,198.040 115.483 M158.555 116.908 C 159.161 117.846,159.481 118.267,160.496 119.453 C 160.853 119.871,160.562 119.351,159.848 118.297 C 158.566 116.402,157.467 115.222,158.555 116.908 M232.941 117.249 C 232.830 117.709,232.408 118.748,232.003 119.559 C 231.598 120.370,231.334 121.101,231.417 121.183 C 231.589 121.356,233.020 118.330,233.308 117.181 C 233.414 116.759,233.420 116.413,233.321 116.413 C 233.223 116.413,233.052 116.790,232.941 117.249 M187.562 120.682 C 185.036 123.077,184.733 123.924,186.373 124.002 C 186.485 124.008,186.827 124.089,187.133 124.182 C 187.439 124.275,187.179 124.068,186.555 123.721 L 185.419 123.090 187.734 120.892 C 190.546 118.220,190.191 118.213,192.223 120.973 C 196.036 126.151,196.480 126.722,196.602 126.599 C 196.673 126.529,196.201 125.789,195.554 124.955 C 194.906 124.121,193.504 122.269,192.437 120.838 C 190.114 117.724,190.664 117.741,187.562 120.682 M200.951 119.069 C 201.180 119.359,201.616 119.872,201.920 120.209 C 202.224 120.545,202.908 121.398,203.440 122.103 C 203.972 122.808,204.514 123.390,204.644 123.395 C 204.774 123.400,203.975 122.310,202.869 120.973 C 201.763 119.635,200.784 118.541,200.695 118.541 C 200.606 118.541,200.721 118.779,200.951 119.069 M174.468 119.118 C 174.027 119.242,174.746 119.325,176.184 119.316 C 177.545 119.308,178.503 119.200,178.312 119.078 C 177.884 118.803,175.503 118.829,174.468 119.118 M170.973 119.757 C 170.198 120.090,170.997 120.090,172.036 119.757 C 172.647 119.561,172.677 119.512,172.188 119.505 C 171.854 119.500,171.307 119.613,170.973 119.757 M164.286 120.671 C 163.895 120.840,164.220 120.872,165.198 120.759 C 166.033 120.662,166.774 120.534,166.844 120.474 C 167.108 120.247,164.866 120.419,164.286 120.671 M178.288 120.635 C 178.611 120.930,180.493 121.425,180.208 121.140 C 180.105 121.038,179.568 120.824,179.013 120.665 C 178.458 120.506,178.132 120.492,178.288 120.635 M230.804 122.069 C 230.075 124.033,224.903 131.289,222.824 133.264 C 222.307 133.755,221.884 134.296,221.884 134.467 C 221.884 134.881,223.900 132.656,226.333 129.558 C 228.461 126.847,231.476 121.952,231.192 121.668 C 231.096 121.572,230.921 121.752,230.804 122.069 M176.290 122.720 C 176.289 122.846,176.148 123.769,175.976 124.772 C 175.623 126.830,174.790 132.863,174.564 134.995 L 174.414 136.403 175.733 136.861 C 176.944 137.282,181.388 138.562,183.852 139.201 C 185.396 139.601,185.543 139.917,184.668 140.958 C 184.240 141.466,183.891 141.973,183.891 142.086 C 183.891 142.199,184.633 141.427,185.540 140.370 C 187.372 138.236,187.378 138.254,184.650 137.673 C 183.647 137.460,182.690 137.187,182.523 137.066 C 182.356 136.945,181.511 136.751,180.647 136.635 C 178.307 136.320,178.039 136.008,177.600 133.086 C 177.003 129.104,176.736 123.100,177.157 123.100 C 177.350 123.100,177.521 123.476,177.538 123.936 C 177.555 124.396,177.688 125.114,177.835 125.532 C 178.021 126.064,178.049 125.837,177.928 124.772 C 177.833 123.936,177.614 123.081,177.442 122.872 C 177.102 122.459,176.293 122.352,176.290 122.720 M206.141 125.363 C 206.859 126.273,207.560 127.025,207.698 127.035 C 207.837 127.044,207.307 126.299,206.522 125.380 C 204.685 123.230,204.449 123.220,206.141 125.363 M190.881 125.707 C 190.881 125.912,192.460 126.486,192.611 126.335 C 192.680 126.267,192.319 126.065,191.809 125.887 C 191.299 125.709,190.881 125.628,190.881 125.707 M195.345 127.504 C 196.158 127.878,196.340 128.158,196.482 129.248 C 196.855 132.106,196.913 132.285,196.819 130.286 C 196.716 128.079,196.421 127.546,195.137 127.239 C 194.570 127.104,194.623 127.171,195.345 127.504 M208.460 128.062 C 208.825 128.451,209.032 128.861,208.919 128.974 C 208.806 129.087,208.873 129.179,209.068 129.179 C 209.263 129.179,209.418 129.077,209.412 128.951 C 209.398 128.620,208.302 127.356,208.029 127.356 C 207.901 127.356,208.095 127.674,208.460 128.062 M200.633 127.769 C 200.703 127.828,201.307 127.961,201.976 128.064 C 202.804 128.191,203.046 128.158,202.736 127.960 C 202.320 127.695,200.338 127.515,200.633 127.769 M178.317 130.091 C 178.418 131.178,178.550 132.124,178.612 132.194 C 178.852 132.466,178.665 129.296,178.407 128.723 C 178.231 128.331,178.199 128.817,178.317 130.091 M205.167 128.571 C 205.585 128.705,206.406 128.812,206.991 128.809 L 208.055 128.803 207.143 128.571 C 205.805 128.231,204.104 128.231,205.167 128.571 M179.161 135.122 C 179.815 135.610,180.371 135.711,180.114 135.295 C 180.023 135.148,179.639 134.950,179.260 134.854 C 178.596 134.687,178.592 134.696,179.161 135.122 M219.605 136.369 C 216.376 139.296,213.397 141.283,208.882 143.519 C 206.043 144.925,205.650 145.461,208.398 144.179 C 212.758 142.145,222.192 135.430,221.542 134.822 C 221.480 134.764,220.608 135.460,219.605 136.369 M197.031 136.990 C 197.171 139.034,197.139 139.187,196.539 139.305 C 196.050 139.401,196.101 139.441,196.751 139.472 L 197.605 139.514 197.395 137.310 C 197.120 134.422,196.839 134.175,197.031 136.990 M181.611 135.832 C 182.469 136.181,184.754 136.504,184.195 136.198 C 183.944 136.060,183.123 135.866,182.371 135.766 C 181.551 135.657,181.247 135.684,181.611 135.832 M185.258 136.778 C 186.167 137.169,186.926 137.169,186.322 136.778 C 186.071 136.616,185.593 136.491,185.258 136.500 L 184.650 136.517 185.258 136.778 M187.994 137.386 C 188.328 137.530,188.875 137.643,189.210 137.638 C 189.698 137.631,189.669 137.582,189.058 137.386 C 188.018 137.053,187.219 137.053,187.994 137.386 M190.907 138.102 C 190.976 138.162,191.512 138.298,192.097 138.406 C 192.846 138.543,193.026 138.512,192.705 138.302 C 192.293 138.032,190.605 137.844,190.907 138.102 M193.921 138.906 C 194.172 139.068,194.582 139.200,194.833 139.200 C 195.238 139.200,195.238 139.168,194.833 138.906 C 194.582 138.744,194.172 138.611,193.921 138.611 C 193.516 138.611,193.516 138.644,193.921 138.906 M182.689 143.241 L 181.987 144.225 182.847 143.398 C 183.320 142.944,183.636 142.501,183.549 142.414 C 183.462 142.328,183.076 142.700,182.689 143.241 M180.680 145.365 L 179.787 146.353 180.775 145.460 C 181.318 144.969,181.763 144.524,181.763 144.472 C 181.763 144.237,181.512 144.444,180.680 145.365 M202.736 146.063 C 201.147 146.621,200.066 147.085,200.331 147.095 C 200.883 147.115,205.664 145.502,205.975 145.190 C 206.313 144.852,205.764 145.000,202.736 146.063 M178.910 147.254 C 178.144 148.423,178.298 148.637,179.863 148.579 L 181.307 148.526 180.015 148.410 C 178.550 148.278,178.547 148.273,179.214 147.254 C 179.484 146.842,179.637 146.505,179.553 146.505 C 179.470 146.505,179.180 146.842,178.910 147.254 M197.264 147.589 C 196.345 147.819,194.840 148.141,193.921 148.305 L 192.249 148.604 194.094 148.476 C 195.850 148.355,199.307 147.603,199.641 147.269 C 199.884 147.026,199.090 147.133,197.264 147.589 M184.650 148.959 C 185.821 149.095,187.736 149.095,188.906 148.959 C 190.771 148.742,190.508 148.711,186.778 148.712 C 183.049 148.712,182.786 148.743,184.650 148.959 " stroke="none" fill="#e9f1f6" fill-rule="evenodd"></path></g></svg>